# Blender 3.3.1
# www.blender.org
mtllib FastEngine.mtl
o Cube.001
v 1.616531 0.243657 -0.710587
v 1.616557 -0.220376 -0.717063
v 1.232792 -0.242712 -0.715029
v 1.232792 0.265993 -0.715029
v 1.462673 0.265993 -0.713964
v 1.462673 -0.242712 -0.713964
v 1.771057 0.144124 -0.794865
v 1.771074 -0.161598 -0.799132
v 1.773187 -0.283882 -1.331466
v 1.773187 0.009406 -1.331466
v 1.770743 -0.145007 -0.631900
v 1.770722 0.168297 -0.627527
v 1.676922 0.127506 -0.815668
v 1.676938 -0.154818 -0.819608
v 1.678890 0.003099 -1.311201
v 1.678890 -0.267743 -1.311201
v 1.676507 0.145004 -0.581211
v 1.676526 -0.121717 -0.584933
v 1.616531 0.243657 0.710587
v 1.616557 -0.220376 0.717063
v 1.232792 -0.242712 0.715029
v 1.232792 0.265993 0.715029
v 1.462673 0.265993 0.713964
v 1.462673 -0.242712 0.713964
v 1.771057 0.144124 0.794865
v 1.771074 -0.161598 0.799132
v 1.773187 -0.283882 1.331466
v 1.773187 0.009406 1.331466
v 1.770743 -0.145007 0.631900
v 1.770722 0.168297 0.627527
v 1.676922 0.127506 0.815668
v 1.676938 -0.154818 0.819608
v 1.678890 0.003099 1.311201
v 1.678890 -0.267743 1.311201
v 1.676507 0.145004 0.581211
v 1.676526 -0.121717 0.584933
v 1.232792 0.275225 0.000259
v 0.493547 0.179382 0.000259
v 1.462673 0.275225 0.000259
v 0.595981 0.275225 0.000259
v 1.616531 0.252888 0.000257
v 0.493547 -0.242712 -0.661697
v 0.493547 -0.200013 -0.715029
v 0.493547 0.170839 -0.661698
v 0.493547 0.126901 -0.715029
v 0.000000 -0.200121 -0.314086
v 0.000000 -0.242712 -0.258453
v 0.000000 0.170151 -0.258420
v 0.000000 0.127030 -0.314086
v 0.595981 0.185772 -0.715029
v 0.606445 0.230926 -0.662459
v 0.595981 -0.199682 -0.715029
v 0.598405 -0.242712 -0.662048
v 1.235469 -0.242712 -1.389272
v 1.235676 -0.199099 -1.441382
v 1.235479 0.096126 -1.391636
v 1.235676 0.041261 -1.441382
v 1.619134 0.079091 -1.366079
v 1.619331 0.024685 -1.415572
v 1.619331 -0.336119 -1.415572
v 1.465361 0.096038 -1.390923
v 1.465557 0.041500 -1.440317
v 1.465557 -0.298406 -1.440317
v 1.465353 -0.336058 -1.388800
v 1.745304 0.187190 -0.703038
v 1.745063 -0.170414 -0.722124
v 1.749150 0.018774 -1.367611
v 1.621169 -0.368924 -1.364446
v 1.749363 -0.316525 -1.367290
v 0.493547 -0.200013 0.715029
v 0.493547 -0.242712 0.661697
v 0.493547 0.126901 0.715029
v 0.493547 0.170840 0.661698
v 0.000000 -0.242712 0.258453
v 0.000000 -0.200121 0.314086
v 0.000000 0.127030 0.314086
v 0.000000 0.170151 0.258420
v 0.606443 0.230928 0.662458
v 0.595981 0.185772 0.715029
v 0.598405 -0.242712 0.662048
v 0.595981 -0.199682 0.715029
v 1.235676 -0.199099 1.441382
v 1.235469 -0.242712 1.389272
v 1.235676 0.041261 1.441382
v 1.235479 0.096126 1.391636
v 1.619331 0.024685 1.415572
v 1.619134 0.079091 1.366079
v 1.619132 -0.369348 1.365579
v 1.619331 -0.336119 1.415572
v 1.465557 0.041500 1.440317
v 1.465361 0.096038 1.390923
v 1.465353 -0.336058 1.388800
v 1.465557 -0.298406 1.440317
v 1.745304 0.187190 0.703037
v 1.745063 -0.170414 0.722124
v 1.749150 0.018774 1.367611
v 1.749363 -0.316525 1.367290
v 1.760265 0.196299 0.000257
v -0.324892 0.127030 -0.314086
v -0.324892 0.170151 -0.258420
v -0.324892 -0.242712 -0.258453
v -0.324892 -0.200121 -0.314086
v -0.324892 0.170151 0.258420
v -0.324892 0.127030 0.314086
v -0.324892 -0.200121 0.314086
v -0.324892 -0.242712 0.258453
vn 0.1180 0.9679 -0.2219
vn 0.0011 0.9699 -0.2435
vn -0.0000 -1.0000 -0.0000
vn -0.7505 -0.0000 0.6609
vn -0.0138 0.9999 -0.0000
vn -0.6305 -0.0000 -0.7762
vn -0.7505 -0.0000 -0.6609
vn -0.5862 0.8093 -0.0369
vn 0.6012 0.7755 -0.1927
vn -0.0746 0.9671 -0.2431
vn 0.0046 -0.0000 -1.0000
vn -0.0294 0.9988 -0.0390
vn 0.9555 0.0100 -0.2950
vn -0.0000 0.9999 -0.0129
vn 0.3473 -0.0003 -0.9377
vn -0.1987 -0.9778 0.0669
vn -0.0457 -0.9827 0.1795
vn 0.1436 -0.9896 -0.0000
vn 0.1438 0.9895 0.0128
vn 0.4436 -0.0125 0.8961
vn 0.1589 -0.0000 -0.9873
vn 0.8327 -0.0000 -0.5538
vn 0.1446 0.9598 -0.2404
vn 0.7033 -0.7109 -0.0000
vn -0.0000 -0.0000 1.0000
vn 0.7064 -0.6893 0.1610
vn 0.8043 0.5942 -0.0000
vn 0.9554 -0.0107 0.2951
vn 1.0000 -0.0000 0.0040
vn 1.0000 0.0001 -0.0000
vn 0.2135 0.0136 -0.9769
vn 0.2400 0.9708 -0.0000
vn 0.2101 -0.0000 0.9777
vn 0.1165 -0.9632 0.2423
vn 0.1180 0.9679 0.2219
vn 0.0011 0.9699 0.2435
vn -0.6305 -0.0000 0.7762
vn -0.5862 0.8093 0.0369
vn -0.0745 0.9671 0.2431
vn 0.0046 -0.0000 1.0000
vn -0.0294 0.9988 0.0391
vn 0.9555 0.0100 0.2950
vn 0.3473 -0.0003 0.9377
vn -0.1987 -0.9778 -0.0669
vn 0.1589 -0.0000 0.9873
vn 0.4436 -0.0125 -0.8961
vn 0.1446 0.9598 0.2404
vn -0.0467 -0.9826 -0.1797
vn 0.8327 -0.0000 0.5538
vn 0.9554 -0.0107 -0.2951
vn 0.6012 0.7755 0.1927
vn 1.0000 -0.0000 -0.0040
vn 0.2135 0.0136 0.9769
vn 0.2101 -0.0000 -0.9777
vn 0.1165 -0.9632 -0.2423
vn 0.2400 -0.9708 -0.0000
vn 0.1438 0.9895 -0.0128
vn -0.0000 0.9999 0.0129
vn 0.7064 -0.6893 -0.1610
vn -0.0000 -0.7940 0.6079
vn 0.0002 -0.7784 -0.6277
vn -0.3111 -0.7472 -0.5872
vn -0.4536 0.6964 -0.5562
vn -0.4487 -0.7037 -0.5508
vn -0.5809 -0.6340 -0.5105
vn -0.5157 0.6380 -0.5719
vn -0.4000 0.7204 -0.5666
vn 0.0026 0.6715 -0.7410
vn 0.1897 0.6603 -0.7267
vn -0.0981 -0.8212 -0.5621
vn 0.4054 0.8869 -0.2217
vn 0.3678 -0.9061 0.2091
vn 0.3131 -0.7942 -0.5208
vn 0.2906 0.6444 -0.7073
vn 0.0002 -0.7784 0.6277
vn -0.3111 -0.7472 0.5872
vn -0.4536 0.6964 0.5562
vn -0.4487 -0.7037 0.5508
vn -0.5809 -0.6340 0.5105
vn -0.5157 0.6380 0.5719
vn -0.4000 0.7204 0.5666
vn 0.0026 0.6715 0.7410
vn 0.1897 0.6603 0.7267
vn -0.0994 -0.8157 0.5699
vn 0.4054 0.8869 0.2217
vn 0.3658 -0.9070 -0.2088
vn 0.3835 0.9234 -0.0160
vn 0.3140 -0.7913 0.5247
vn 0.2906 0.6444 0.7073
vn 0.3835 0.9234 0.0160
vn 0.3624 -0.9320 -0.0000
vn -0.0000 -0.0000 -1.0000
vn -1.0000 -0.0000 -0.0000
vn -0.0000 0.7906 0.6124
vn -0.0000 1.0000 -0.0000
vn -0.0000 -0.7940 -0.6079
vn -0.0000 0.7906 -0.6124
vt 0.915163 0.737747
vt 0.915171 0.739869
vt 0.789394 0.739203
vt 0.789394 0.739203
vt 0.864737 0.738854
vt 0.864737 0.738854
vt 0.965808 0.765369
vt 0.965813 0.766767
vt 0.966506 0.941236
vt 0.966506 0.941236
vt 0.965705 0.711958
vt 0.965698 0.710525
vt 0.082365 0.773172
vt 0.934955 0.772187
vt 0.178792 0.775688
vt 0.934961 0.773478
vt 0.122809 0.942966
vt 0.935600 0.934595
vt 0.215331 0.944088
vt 0.935600 0.934595
vt 0.077359 0.693007
vt 0.934819 0.695345
vt 0.168458 0.695384
vt 0.934826 0.696565
vt 0.915163 0.271966
vt 0.915171 0.269844
vt 0.789394 0.270510
vt 0.789394 0.270510
vt 0.864737 0.270859
vt 0.864737 0.270859
vt 0.965808 0.244344
vt 0.965813 0.242946
vt 0.966506 0.068477
vt 0.966506 0.068477
vt 0.965705 0.297755
vt 0.965698 0.299188
vt 0.089127 0.215895
vt 0.934955 0.237526
vt 0.185588 0.215719
vt 0.934961 0.236235
vt 0.133680 0.047133
vt 0.935600 0.075118
vt 0.226202 0.048256
vt 0.935600 0.075118
vt 0.082178 0.295915
vt 0.934819 0.314368
vt 0.173307 0.295749
vt 0.934826 0.313148
vt 0.789394 0.504772
vt 0.547112 0.504772
vt 0.864737 0.504772
vt 0.580683 0.504772
vt 0.915163 0.504772
vt 0.547112 0.721724
vt 0.547112 0.739203
vt 0.547112 0.721724
vt 0.547112 0.739203
vt 0.385354 0.607796
vt 0.385354 0.589563
vt 0.385354 0.589552
vt 0.385354 0.607796
vt 0.580683 0.739203
vt 0.584113 0.721973
vt 0.580683 0.739203
vt 0.581478 0.721839
vt 0.790272 0.960182
vt 0.790340 0.977261
vt 0.790275 0.960957
vt 0.790340 0.977261
vt 0.916016 0.952581
vt 0.916080 0.968801
vt 0.916080 0.968801
vt 0.865618 0.960723
vt 0.865682 0.976912
vt 0.865682 0.976912
vt 0.865615 0.960027
vt 0.957367 0.735273
vt 0.957288 0.741528
vt 0.958628 0.953083
vt 0.916683 0.952045
vt 0.958698 0.952977
vt 0.547112 0.270510
vt 0.547112 0.287989
vt 0.547112 0.270510
vt 0.547112 0.287989
vt 0.385354 0.420150
vt 0.385354 0.401917
vt 0.385354 0.401917
vt 0.385354 0.420161
vt 0.584112 0.287740
vt 0.580683 0.270510
vt 0.581478 0.287874
vt 0.580683 0.270510
vt 0.790340 0.032452
vt 0.790272 0.049531
vt 0.790340 0.032452
vt 0.790275 0.048756
vt 0.916080 0.040911
vt 0.916016 0.057132
vt 0.916015 0.057296
vt 0.916080 0.040911
vt 0.865682 0.032801
vt 0.865618 0.048990
vt 0.865615 0.049686
vt 0.865682 0.032801
vt 0.957367 0.274440
vt 0.957288 0.268185
vt 0.958628 0.056630
vt 0.958698 0.056735
vt 0.962271 0.504772
vt 0.278873 0.607796
vt 0.278873 0.589552
vt 0.278873 0.589563
vt 0.278873 0.607796
vt 0.278873 0.420161
vt 0.278873 0.401917
vt 0.278873 0.401917
vt 0.278873 0.420150
s 0
usemtl FastEngineMaterial
f 8/8/1 9/9/1 16/20/1 14/16/1
f 56/68/2 4/4/2 5/5/2 61/73/2
f 80/92/3 53/65/3 3/3/3 21/27/3
f 81/93/4 82/94/4 84/96/4 79/91/4
f 48/60/5 77/89/5 73/85/5 38/50/5 44/56/5
f 45/57/6 43/55/6 46/58/6 49/61/6
f 52/64/7 50/62/7 57/69/7 55/67/7
f 44/56/8 38/50/8 40/52/8 51/63/8
f 67/79/9 65/77/9 7/7/9 10/10/9
f 71/83/3 74/86/3 47/59/3 42/54/3
f 51/63/10 4/4/10 56/68/10
f 55/67/11 57/69/11 62/74/11 63/75/11
f 37/49/12 4/4/12 51/63/12 40/52/12
f 66/78/13 65/77/13 12/12/13 11/11/13
f 80/92/3 71/83/3 42/54/3 53/65/3
f 37/49/14 39/51/14 5/5/14 4/4/14
f 60/72/15 59/71/15 67/79/15 69/81/15
f 6/6/3 24/30/3 21/27/3 3/3/3
f 3/3/16 54/66/16 64/76/16 6/6/16
f 68/80/17 2/2/17 6/6/17 64/76/17
f 20/26/18 24/30/18 6/6/18 2/2/18
f 39/51/19 23/29/19 19/25/19 41/53/19
f 11/11/20 12/12/20 17/22/20 18/24/20
f 59/71/21 60/72/21 63/75/21 62/74/21
f 69/81/22 67/79/22 10/10/22 9/9/22
f 1/1/23 58/70/23 61/73/23 5/5/23
f 11/11/24 29/35/24 95/107/24 66/78/24
f 79/91/25 72/84/25 70/82/25 81/93/25
f 66/78/26 69/81/26 9/9/26 8/8/26
f 94/106/27 30/36/27 12/12/27 65/77/27 98/110/27
f 65/77/28 66/78/28 8/8/28 7/7/28
f 13/13/29 14/15/29 16/19/29 15/17/29
f 36/47/30 18/23/30 17/21/30 35/45/30
f 7/7/31 8/8/31 14/16/31 13/14/31
f 18/24/32 36/48/32 29/35/32 11/11/32
f 9/9/33 10/10/33 15/18/33 16/20/33
f 10/10/34 7/7/34 13/14/34 15/18/34
f 26/32/35 32/40/35 34/44/35 27/33/35
f 85/97/36 91/103/36 23/29/36 22/28/36
f 72/84/37 76/88/37 75/87/37 70/82/37
f 38/50/38 73/85/38 78/90/38 40/52/38
f 78/90/39 85/97/39 22/28/39
f 82/94/40 93/105/40 90/102/40 84/96/40
f 22/28/41 37/49/41 40/52/41 78/90/41
f 95/107/42 29/35/42 30/36/42 94/106/42
f 89/101/43 97/109/43 96/108/43 86/98/43
f 21/27/44 24/30/44 92/104/44 83/95/44
f 86/98/45 90/102/45 93/105/45 89/101/45
f 29/35/46 36/48/46 35/46/46 30/36/46
f 19/25/47 23/29/47 91/103/47 87/99/47
f 88/100/48 92/104/48 24/30/48 20/26/48
f 97/109/49 27/33/49 28/34/49 96/108/49
f 94/106/50 25/31/50 26/32/50 95/107/50
f 96/108/51 28/34/51 25/31/51 94/106/51
f 31/37/52 33/41/52 34/43/52 32/39/52
f 25/31/53 31/38/53 32/40/53 26/32/53
f 27/33/54 34/44/54 33/42/54 28/34/54
f 28/34/55 33/42/55 31/38/55 25/31/55
f 30/36/56 35/46/56 17/22/56 12/12/56
f 5/5/57 39/51/57 41/53/57 1/1/57
f 22/28/58 23/29/58 39/51/58 37/49/58
f 95/107/59 26/32/59 27/33/59 97/109/59
f 74/86/60 75/87/60 105/117/60 106/118/60
f 21/27/3 83/95/3 80/92/3
f 3/3/3 53/65/3 54/66/3
f 43/55/61 52/64/61 53/65/61 42/54/61
f 55/67/62 63/75/62 64/76/62 54/66/62
f 45/57/63 49/61/63 48/60/63 44/56/63
f 46/58/64 43/55/64 42/54/64 47/59/64
f 54/66/65 53/65/65 52/64/65 55/67/65
f 51/63/66 56/68/66 57/69/66 50/62/66
f 50/62/67 45/57/67 44/56/67 51/63/67
f 62/74/68 57/69/68 56/68/68 61/73/68
f 61/73/69 58/70/69 59/71/69 62/74/69
f 68/80/70 64/76/70 63/75/70 60/72/70
f 58/70/71 1/1/71 65/77/71 67/79/71
f 2/2/72 68/80/72 69/81/72 66/78/72
f 60/72/73 69/81/73 68/80/73
f 58/70/74 67/79/74 59/71/74
f 71/83/75 80/92/75 81/93/75 70/82/75
f 83/95/76 92/104/76 93/105/76 82/94/76
f 73/85/77 77/89/77 76/88/77 72/84/77
f 74/86/78 71/83/78 70/82/78 75/87/78
f 82/94/79 81/93/79 80/92/79 83/95/79
f 79/91/80 84/96/80 85/97/80 78/90/80
f 78/90/81 73/85/81 72/84/81 79/91/81
f 91/103/82 85/97/82 84/96/82 90/102/82
f 90/102/83 86/98/83 87/99/83 91/103/83
f 89/101/84 93/105/84 92/104/84 88/100/84
f 96/108/85 94/106/85 19/25/85 87/99/85
f 95/107/86 97/109/86 88/100/86 20/26/86
f 98/110/87 65/77/87 1/1/87 41/53/87
f 88/100/88 97/109/88 89/101/88
f 86/98/89 96/108/89 87/99/89
f 94/106/90 98/110/90 41/53/90 19/25/90
f 66/78/91 95/107/91 20/26/91 2/2/91
f 50/62/92 52/64/92 43/55/92 45/57/92
f 102/114/93 101/113/93 106/118/93 105/117/93 104/116/93 103/115/93 100/112/93 99/111/93
f 75/87/25 76/88/25 104/116/25 105/117/25
f 76/88/94 77/89/94 103/115/94 104/116/94
f 77/89/95 48/60/95 100/112/95 103/115/95
f 47/59/3 74/86/3 106/118/3 101/113/3
f 49/61/92 46/58/92 102/114/92 99/111/92
f 46/58/96 47/59/96 101/113/96 102/114/96
f 48/60/97 49/61/97 99/111/97 100/112/97
