# Blender 3.3.0
# www.blender.org
mtllib FastEngine.mtl
o Cube.001
v 1.616531 0.243657 -0.710587
v 1.616557 -0.220376 -0.717063
v 1.232792 -0.242712 -0.715029
v 1.232792 0.265993 -0.715029
v 1.462673 0.265993 -0.713964
v 1.462673 -0.242712 -0.713964
v 1.771057 0.144124 -0.794865
v 1.771074 -0.161598 -0.799132
v 1.773187 -0.283882 -1.331466
v 1.773187 0.009406 -1.331466
v 1.770743 -0.145007 -0.631900
v 1.770722 0.168297 -0.627527
v 1.676922 0.127506 -0.815668
v 1.676938 -0.154818 -0.819608
v 1.678890 0.003099 -1.311201
v 1.678890 -0.267743 -1.311201
v 1.676507 0.145004 -0.581211
v 1.676526 -0.121717 -0.584933
v 1.616531 0.243657 0.710587
v 1.616557 -0.220376 0.717063
v 1.232792 -0.242712 0.715029
v 1.232792 0.265993 0.715029
v 1.462673 0.265993 0.713964
v 1.462673 -0.242712 0.713964
v 1.771057 0.144124 0.794865
v 1.771074 -0.161598 0.799132
v 1.773187 -0.283882 1.331466
v 1.773187 0.009406 1.331466
v 1.770743 -0.145007 0.631900
v 1.770722 0.168297 0.627527
v 1.676922 0.127506 0.815668
v 1.676938 -0.154818 0.819608
v 1.678890 0.003099 1.311201
v 1.678890 -0.267743 1.311201
v 1.676507 0.145004 0.581211
v 1.676526 -0.121717 0.584933
v 1.232792 0.275225 0.000259
v 0.493547 0.179382 0.000259
v 1.462673 0.275225 0.000259
v 0.595981 0.275225 0.000259
v 1.616531 0.252888 0.000257
v 0.493547 -0.242712 -0.661697
v 0.493547 -0.200013 -0.715029
v 0.493547 0.170839 -0.661698
v 0.493547 0.126901 -0.715029
v -0.000000 -0.200121 -0.314086
v -0.000000 -0.242712 -0.258453
v -0.000000 0.170151 -0.258420
v -0.000000 0.127030 -0.314086
v 0.595981 0.185772 -0.715029
v 0.606445 0.230926 -0.662459
v 0.595981 -0.199682 -0.715029
v 0.598405 -0.242712 -0.662048
v 1.235469 -0.242712 -1.389272
v 1.235676 -0.199099 -1.441382
v 1.235479 0.096126 -1.391636
v 1.235676 0.041261 -1.441382
v 1.619134 0.079091 -1.366079
v 1.619331 0.024685 -1.415572
v 1.619331 -0.336119 -1.415572
v 1.465361 0.096038 -1.390923
v 1.465557 0.041500 -1.440317
v 1.465557 -0.298406 -1.440317
v 1.465353 -0.336058 -1.388800
v 1.745304 0.187190 -0.703038
v 1.745063 -0.170414 -0.722124
v 1.749150 0.018774 -1.367611
v 1.621169 -0.368924 -1.364446
v 1.749363 -0.316525 -1.367290
v 0.493547 -0.200013 0.715029
v 0.493547 -0.242712 0.661697
v 0.493547 0.126901 0.715029
v 0.493547 0.170840 0.661698
v -0.000000 -0.242712 0.258453
v -0.000000 -0.200121 0.314086
v -0.000000 0.127030 0.314086
v -0.000000 0.170151 0.258420
v 0.606443 0.230928 0.662458
v 0.595981 0.185772 0.715029
v 0.598405 -0.242712 0.662048
v 0.595981 -0.199682 0.715029
v 1.235676 -0.199099 1.441382
v 1.235469 -0.242712 1.389272
v 1.235676 0.041261 1.441382
v 1.235479 0.096126 1.391636
v 1.619331 0.024685 1.415572
v 1.619134 0.079091 1.366079
v 1.619132 -0.369348 1.365579
v 1.619331 -0.336119 1.415572
v 1.465557 0.041500 1.440317
v 1.465361 0.096038 1.390923
v 1.465353 -0.336058 1.388800
v 1.465557 -0.298406 1.440317
v 1.745304 0.187190 0.703037
v 1.745063 -0.170414 0.722124
v 1.749150 0.018774 1.367611
v 1.749363 -0.316525 1.367290
v 1.760265 0.196299 0.000257
v -0.324892 0.127030 -0.314086
v -0.324892 0.170151 -0.258420
v -0.324892 -0.242712 -0.258453
v -0.324892 -0.200121 -0.314086
v -0.324892 0.170151 0.258420
v -0.324892 0.127030 0.314086
v -0.324892 -0.200121 0.314086
v -0.324892 -0.242712 0.258453
vn 0.1180 0.9679 -0.2219
vn 0.0011 0.9699 -0.2435
vn -0.0000 -1.0000 -0.0000
vn -0.7505 -0.0000 0.6609
vn -0.0138 0.9999 -0.0000
vn -0.6305 -0.0000 -0.7762
vn -0.7505 -0.0000 -0.6609
vn -0.5862 0.8093 -0.0369
vn 0.6012 0.7755 -0.1927
vn -0.0745 0.9671 -0.2431
vn 0.0046 -0.0000 -1.0000
vn -0.0294 0.9988 -0.0390
vn 0.9555 0.0100 -0.2950
vn -0.0000 0.9999 -0.0129
vn 0.3473 -0.0003 -0.9377
vn -0.1987 -0.9778 0.0669
vn -0.0457 -0.9827 0.1795
vn 0.1436 -0.9896 -0.0000
vn 0.1438 0.9895 0.0128
vn 0.4436 -0.0125 0.8961
vn 0.1589 -0.0000 -0.9873
vn 0.8327 -0.0000 -0.5538
vn 0.1446 0.9598 -0.2404
vn 0.7033 -0.7109 -0.0000
vn -0.0000 -0.0000 1.0000
vn 0.7064 -0.6892 0.1610
vn 0.8043 0.5942 -0.0000
vn 0.9554 -0.0107 0.2951
vn 1.0000 -0.0000 0.0040
vn 1.0000 0.0001 -0.0000
vn 0.2135 0.0136 -0.9769
vn 0.2400 0.9708 -0.0000
vn 0.2101 -0.0000 0.9777
vn 0.1165 -0.9632 0.2423
vn 0.1180 0.9679 0.2219
vn 0.0011 0.9699 0.2435
vn -0.6305 -0.0000 0.7762
vn -0.5862 0.8093 0.0369
vn -0.0745 0.9671 0.2431
vn 0.0046 -0.0000 1.0000
vn -0.0294 0.9988 0.0391
vn 0.9555 0.0100 0.2950
vn 0.3473 -0.0003 0.9377
vn -0.1987 -0.9778 -0.0669
vn 0.1589 -0.0000 0.9873
vn 0.4436 -0.0125 -0.8961
vn 0.1446 0.9598 0.2404
vn -0.0467 -0.9826 -0.1797
vn 0.8327 -0.0000 0.5538
vn 0.9554 -0.0107 -0.2951
vn 0.6012 0.7755 0.1927
vn 1.0000 -0.0000 -0.0040
vn 0.2135 0.0136 0.9769
vn 0.2101 -0.0000 -0.9777
vn 0.1165 -0.9632 -0.2423
vn 0.2400 -0.9708 -0.0000
vn 0.1438 0.9895 -0.0128
vn -0.0000 0.9999 0.0129
vn 0.7064 -0.6892 -0.1610
vn -0.0000 -0.7940 0.6079
vn 0.0002 -0.7784 -0.6277
vn -0.3111 -0.7472 -0.5872
vn -0.4536 0.6964 -0.5562
vn -0.4487 -0.7037 -0.5508
vn -0.5809 -0.6340 -0.5105
vn -0.5157 0.6380 -0.5719
vn -0.4000 0.7204 -0.5666
vn 0.0026 0.6715 -0.7410
vn 0.1897 0.6603 -0.7267
vn -0.0981 -0.8212 -0.5621
vn 0.4054 0.8869 -0.2217
vn 0.3678 -0.9061 0.2091
vn 0.3131 -0.7942 -0.5208
vn 0.2906 0.6444 -0.7073
vn 0.0002 -0.7784 0.6277
vn -0.3111 -0.7472 0.5872
vn -0.4536 0.6964 0.5562
vn -0.4487 -0.7037 0.5508
vn -0.5809 -0.6340 0.5105
vn -0.5157 0.6380 0.5719
vn -0.4000 0.7204 0.5666
vn 0.0026 0.6715 0.7410
vn 0.1897 0.6603 0.7267
vn -0.0994 -0.8157 0.5699
vn 0.4054 0.8869 0.2217
vn 0.3658 -0.9070 -0.2088
vn 0.3835 0.9234 -0.0160
vn 0.3141 -0.7913 0.5247
vn 0.2906 0.6444 0.7073
vn 0.3835 0.9234 0.0160
vn 0.3624 -0.9320 -0.0000
vn -0.0000 -0.0000 -1.0000
vn -1.0000 -0.0000 -0.0000
vn -0.0000 0.7906 0.6124
vn -0.0000 1.0000 -0.0000
vn -0.0000 -0.7940 -0.6079
vn -0.0000 0.7906 -0.6124
vt 0.614023 0.501181
vt 0.385977 0.498916
vt 0.375000 0.500000
vt 0.625000 0.500000
vt 0.625000 0.500000
vt 0.375000 0.500000
vt 0.575227 0.500706
vt 0.424660 0.499332
vt 0.425813 0.499923
vt 0.574055 0.500042
vt 0.423014 0.527537
vt 0.576986 0.529062
vt 0.575227 0.500706
vt 0.424660 0.499332
vt 0.574055 0.500042
vt 0.425813 0.499923
vt 0.576986 0.529062
vt 0.423014 0.527537
vt 0.614023 0.501181
vt 0.385977 0.498916
vt 0.375000 0.500000
vt 0.625000 0.500000
vt 0.625000 0.500000
vt 0.375000 0.500000
vt 0.575227 0.500706
vt 0.424660 0.499332
vt 0.425813 0.499923
vt 0.574055 0.500042
vt 0.423014 0.527537
vt 0.576986 0.529062
vt 0.575227 0.500706
vt 0.424660 0.499332
vt 0.574055 0.500042
vt 0.425813 0.499923
vt 0.576986 0.529062
vt 0.423014 0.527537
vt 0.625000 0.500000
vt 0.875000 0.500000
vt 0.625000 0.500000
vt 0.875000 0.500000
vt 0.614023 0.501181
vt 0.125000 0.500000
vt 0.125000 0.500000
vt 0.400855 0.250000
vt 0.875000 0.500000
vt 0.625000 0.250000
vt 0.598811 0.250000
vt 0.400790 0.250000
vt 0.125000 0.500000
vt 0.125000 0.500000
vt 0.875000 0.500000
vt 0.625000 0.250000
vt 0.598889 0.250000
vt 0.602299 0.250000
vt 0.875000 0.500000
vt 0.873270 0.500000
vt 0.871077 0.500000
vt 0.625000 0.250000
vt 0.125000 0.500000
vt 0.397827 0.250000
vt 0.125000 0.500000
vt 0.126034 0.500000
vt 0.375000 0.500000
vt 0.408410 0.500000
vt 0.375000 0.500000
vt 0.625000 0.484066
vt 0.625000 0.500000
vt 0.592538 0.500000
vt 0.613377 0.500083
vt 0.592062 0.500000
vt 0.409294 0.500000
vt 0.625000 0.500000
vt 0.600319 0.500000
vt 0.401228 0.500000
vt 0.375000 0.500000
vt 0.592905 0.503501
vt 0.593009 0.500979
vt 0.588475 0.500976
vt 0.589749 0.519454
vt 0.406461 0.496925
vt 0.407642 0.499133
vt 0.409052 0.499097
vt 0.408185 0.516077
vt 0.589529 0.500005
vt 0.586337 0.499990
vt 0.591212 0.500000
vt 0.386596 0.499922
vt 0.410198 0.499989
vt 0.411323 0.499983
vt 0.409852 0.500000
vt 0.400855 0.250000
vt 0.125000 0.500000
vt 0.125000 0.500000
vt 0.598811 0.250000
vt 0.875000 0.500000
vt 0.625000 0.250000
vt 0.125000 0.500000
vt 0.125000 0.500000
vt 0.400790 0.250000
vt 0.598889 0.250000
vt 0.625000 0.250000
vt 0.875000 0.500000
vt 0.875000 0.500000
vt 0.873270 0.500000
vt 0.871078 0.500000
vt 0.625000 0.250000
vt 0.602299 0.250000
vt 0.125000 0.500000
vt 0.126034 0.500000
vt 0.397827 0.250000
vt 0.125000 0.500000
vt 0.408410 0.500000
vt 0.375000 0.500000
vt 0.375000 0.500000
vt 0.592538 0.500000
vt 0.625000 0.484066
vt 0.625000 0.500000
vt 0.592062 0.500000
vt 0.613377 0.500083
vt 0.386596 0.499922
vt 0.409294 0.500000
vt 0.600319 0.500000
vt 0.625000 0.500000
vt 0.375000 0.500000
vt 0.401228 0.500000
vt 0.592905 0.503501
vt 0.593009 0.500979
vt 0.588475 0.500976
vt 0.589749 0.519454
vt 0.406461 0.496925
vt 0.407642 0.499133
vt 0.409052 0.499097
vt 0.408185 0.516077
vt 0.589529 0.500005
vt 0.586337 0.499990
vt 0.591212 0.500000
vt 0.410198 0.499989
vt 0.411323 0.499983
vt 0.409852 0.500000
vt 0.592445 0.517424
vt 0.598889 0.250000
vt 0.875000 0.500000
vt 0.625000 0.250000
vt 0.375000 0.250000
vt 0.125000 0.500000
vt 0.400790 0.250000
vt 0.125000 0.500000
vt 0.625000 0.250000
vt 0.875000 0.500000
vt 0.598889 0.250000
vt 0.125000 0.500000
vt 0.400790 0.250000
vt 0.375000 0.250000
vt 0.125000 0.500000
s 0
f 8/8/1 9/9/1 16/16/1 14/14/1
f 56/67/2 4/4/2 5/5/2 61/72/2
f 80/109/3 53/62/3 3/3/3 21/21/3
f 81/110/4 82/112/4 84/115/4 79/107/4
f 48/51/5 77/102/5 73/95/5 38/38/5 44/45/5
f 45/47/6 43/44/6 46/48/6 49/53/6
f 52/60/7 50/54/7 57/68/7 55/64/7
f 44/45/8 38/38/8 40/40/8 51/55/8
f 67/85/9 65/78/9 7/7/9 10/10/9
f 71/93/3 74/97/3 47/50/3 42/42/3
f 51/56/10 4/4/10 56/67/10
f 55/64/11 57/68/11 62/73/11 63/74/11
f 37/37/12 4/4/12 51/57/12 40/40/12
f 66/80/13 65/76/13 12/12/13 11/11/13
f 80/108/3 71/93/3 42/42/3 53/61/3
f 37/37/14 39/39/14 5/5/14 4/4/14
f 60/71/15 59/70/15 67/86/15 69/90/15
f 6/6/3 24/24/3 21/21/3 3/3/3
f 3/3/16 54/63/16 64/75/16 6/6/16
f 68/87/17 2/2/17 6/6/17 64/75/17
f 20/20/18 24/24/18 6/6/18 2/2/18
f 39/39/19 23/23/19 19/19/19 41/41/19
f 11/11/20 12/12/20 17/17/20 18/18/20
f 59/70/21 60/71/21 63/74/21 62/73/21
f 69/88/22 67/84/22 10/10/22 9/9/22
f 1/1/23 58/69/23 61/72/23 5/5/23
f 11/11/24 29/29/24 95/133/24 66/83/24
f 79/107/25 72/94/25 70/91/25 81/110/25
f 66/82/26 69/89/26 9/9/26 8/8/26
f 94/129/27 30/30/27 12/12/27 65/79/27 98/140/27
f 65/77/28 66/81/28 8/8/28 7/7/28
f 13/13/29 14/14/29 16/16/29 15/15/29
f 36/36/30 18/18/30 17/17/30 35/35/30
f 7/7/31 8/8/31 14/14/31 13/13/31
f 18/18/32 36/36/32 29/29/32 11/11/32
f 9/9/33 10/10/33 15/15/33 16/16/33
f 10/10/34 7/7/34 13/13/34 15/15/34
f 26/26/35 32/32/35 34/34/35 27/27/35
f 85/117/36 91/123/36 23/23/36 22/22/36
f 72/94/37 76/100/37 75/99/37 70/91/37
f 38/38/38 73/95/38 78/103/38 40/40/38
f 78/104/39 85/117/39 22/22/39
f 82/112/40 93/125/40 90/122/40 84/115/40
f 22/22/41 37/37/41 40/40/41 78/105/41
f 95/130/42 29/29/42 30/30/42 94/126/42
f 89/121/43 97/139/43 96/136/43 86/118/43
f 21/21/44 24/24/44 92/124/44 83/114/44
f 86/118/45 90/122/45 93/125/45 89/121/45
f 29/29/46 36/36/46 35/35/46 30/30/46
f 19/19/47 23/23/47 91/123/47 87/119/47
f 88/120/48 92/124/48 24/24/48 20/20/48
f 97/137/49 27/27/49 28/28/49 96/134/49
f 94/127/50 25/25/50 26/26/50 95/131/50
f 96/135/51 28/28/51 25/25/51 94/128/51
f 31/31/52 33/33/52 34/34/52 32/32/52
f 25/25/53 31/31/53 32/32/53 26/26/53
f 27/27/54 34/34/54 33/33/54 28/28/54
f 28/28/55 33/33/55 31/31/55 25/25/55
f 30/30/56 35/35/56 17/17/56 12/12/56
f 5/5/57 39/39/57 41/41/57 1/1/57
f 22/22/58 23/23/58 39/39/58 37/37/58
f 95/132/59 26/26/59 27/27/59 97/138/59
f 74/97/60 75/98/60 105/151/60 106/154/60
f 21/21/3 83/114/3 80/109/3
f 3/3/3 53/62/3 54/63/3
f 43/43/61 52/59/61 53/61/61 42/42/61
f 55/64/62 63/74/62 64/75/62 54/63/62
f 45/47/63 49/53/63 48/52/63 44/46/63
f 46/49/64 43/43/64 42/42/64 47/50/64
f 54/63/65 53/62/65 52/59/65 55/65/65
f 51/58/66 56/66/66 57/68/66 50/54/66
f 50/54/67 45/47/67 44/46/67 51/58/67
f 62/73/68 57/68/68 56/67/68 61/72/68
f 61/72/69 58/69/69 59/70/69 62/73/69
f 68/87/70 64/75/70 63/74/70 60/71/70
f 58/69/71 1/1/71 65/78/71 67/85/71
f 2/2/72 68/87/72 69/89/72 66/82/72
f 60/71/73 69/90/73 68/87/73
f 58/69/74 67/86/74 59/70/74
f 71/93/75 80/108/75 81/111/75 70/92/75
f 83/114/76 92/124/76 93/125/76 82/112/76
f 73/96/77 77/101/77 76/100/77 72/94/77
f 74/97/78 71/93/78 70/92/78 75/98/78
f 82/113/79 81/111/79 80/109/79 83/114/79
f 79/107/80 84/115/80 85/116/80 78/106/80
f 78/106/81 73/96/81 72/94/81 79/107/81
f 91/123/82 85/117/82 84/115/82 90/122/82
f 90/122/83 86/118/83 87/119/83 91/123/83
f 89/121/84 93/125/84 92/124/84 88/120/84
f 96/135/85 94/128/85 19/19/85 87/119/85
f 95/132/86 97/138/86 88/120/86 20/20/86
f 98/140/87 65/79/87 1/1/87 41/41/87
f 88/120/88 97/139/88 89/121/88
f 86/118/89 96/136/89 87/119/89
f 94/129/90 98/140/90 41/41/90 19/19/90
f 66/83/91 95/133/91 20/20/91 2/2/91
f 50/54/92 52/60/92 43/44/92 45/47/92
f 102/146/93 101/144/93 106/153/93 105/152/93 104/150/93 103/148/93 100/143/93 99/141/93
f 75/99/25 76/100/25 104/150/25 105/152/25
f 76/100/94 77/101/94 103/148/94 104/150/94
f 77/102/95 48/51/95 100/142/95 103/149/95
f 47/50/3 74/97/3 106/154/3 101/145/3
f 49/53/92 46/48/92 102/146/92 99/141/92
f 46/49/96 47/50/96 101/145/96 102/147/96
f 48/52/97 49/53/97 99/141/97 100/143/97
