# Blender 3.3.1
# www.blender.org
mtllib Medium_Engine.mtl
o Cube
v -0.321177 0.150006 0.246773
v -0.321177 0.300000 0.139286
v 1.626207 1.000000 0.276299
v 1.626207 0.767148 0.489332
v 0.283571 0.150006 0.316706
v 0.283571 0.300000 0.178789
v 0.926982 0.766355 0.489332
v 0.926982 1.000000 0.276299
v -0.321177 0.150006 -0.247016
v -0.321177 0.300000 -0.139530
v 1.626207 1.000000 -0.276299
v 1.626207 0.767148 -0.489332
v 0.283571 0.150006 -0.316880
v 0.283571 0.300000 -0.178963
v 0.926982 0.766355 -0.489332
v 0.926982 1.000000 -0.276299
v -0.321177 -0.150006 0.246773
v -0.321177 -0.300000 0.139286
v 1.626207 -1.000000 0.276299
v 1.626207 -0.767148 0.489332
v 0.283571 -0.150006 0.316706
v 0.283571 -0.300000 0.178789
v 0.926982 -0.766355 0.489332
v 0.926982 -1.000000 0.276299
v -0.321177 -0.150006 -0.247016
v -0.321177 -0.300000 -0.139530
v 1.626207 -1.000000 -0.276299
v 1.626207 -0.767148 -0.489332
v 0.283571 -0.150006 -0.316880
v 0.283571 -0.300000 -0.178963
v 0.926982 -0.766355 -0.489332
v 0.926982 -1.000000 -0.276299
v 1.626207 0.654624 -0.298822
v 1.626207 0.865923 -0.211299
v 1.626207 0.953446 0.000000
v 1.626207 0.865923 0.211299
v 1.626207 0.654624 0.298822
v 1.626207 0.443326 0.211299
v 1.626207 0.355803 0.000000
v 1.626207 0.443326 -0.211299
v 1.028564 0.654624 0.000000
v 1.506403 0.654624 -0.238920
v 1.678823 0.654624 -0.217334
v 1.506403 0.485682 -0.168942
v 1.678823 0.500945 -0.153679
v 1.506403 0.415704 0.000000
v 1.678823 0.437290 0.000000
v 1.506403 0.485682 0.168942
v 1.678823 0.500945 0.153679
v 1.506403 0.654624 0.238920
v 1.678823 0.654624 0.217334
v 1.506403 0.823566 0.168942
v 1.678823 0.808303 0.153679
v 1.506403 0.893544 0.000000
v 1.678823 0.871958 0.000000
v 1.506403 0.823566 -0.168942
v 1.678823 0.808303 -0.153679
v 1.678823 0.485682 -0.168942
v 1.678823 0.654624 -0.238920
v 1.678823 0.415704 0.000000
v 1.678823 0.485682 0.168942
v 1.678823 0.654624 0.238920
v 1.678823 0.823566 0.168942
v 1.678823 0.893544 0.000000
v 1.678823 0.823566 -0.168942
v 1.506403 0.500945 -0.153679
v 1.506403 0.654624 -0.217334
v 1.506403 0.437290 0.000000
v 1.506403 0.500945 0.153679
v 1.506403 0.654624 0.217334
v 1.506403 0.808303 0.153679
v 1.506403 0.871958 0.000000
v 1.506403 0.808303 -0.153679
v 1.626207 -0.002783 -0.298822
v 1.626207 0.208516 -0.211299
v 1.626207 0.296038 0.000000
v 1.626207 0.208516 0.211299
v 1.626207 -0.002783 0.298822
v 1.626207 -0.214082 0.211299
v 1.626207 -0.301605 -0.000000
v 1.626207 -0.214082 -0.211299
v 1.028564 -0.002783 -0.000000
v 1.506403 -0.002784 -0.238920
v 1.678823 -0.002783 -0.217334
v 1.506403 -0.171725 -0.168942
v 1.678823 -0.156462 -0.153679
v 1.506403 -0.241703 -0.000000
v 1.678823 -0.220118 -0.000000
v 1.506403 -0.171725 0.168942
v 1.678823 -0.156462 0.153679
v 1.506403 -0.002784 0.238920
v 1.678823 -0.002783 0.217334
v 1.506403 0.166158 0.168942
v 1.678823 0.150895 0.153679
v 1.506403 0.236136 0.000000
v 1.678823 0.214551 0.000000
v 1.506403 0.166158 -0.168942
v 1.678823 0.150895 -0.153679
v 1.678823 -0.171725 -0.168942
v 1.678823 -0.002783 -0.238920
v 1.678823 -0.241703 -0.000000
v 1.678823 -0.171725 0.168942
v 1.678823 -0.002783 0.238920
v 1.678823 0.166158 0.168942
v 1.678823 0.236136 0.000000
v 1.678823 0.166158 -0.168942
v 1.506403 -0.156462 -0.153679
v 1.506403 -0.002783 -0.217334
v 1.506403 -0.220118 -0.000000
v 1.506403 -0.156462 0.153679
v 1.506403 -0.002783 0.217334
v 1.506403 0.150895 0.153679
v 1.506403 0.214551 0.000000
v 1.506403 0.150895 -0.153679
v 1.626207 -0.660191 -0.298822
v 1.626207 -0.448892 -0.211299
v 1.626207 -0.361369 -0.000000
v 1.626207 -0.448892 0.211299
v 1.626207 -0.660191 0.298822
v 1.626207 -0.871489 0.211299
v 1.626207 -0.959012 -0.000000
v 1.626207 -0.871489 -0.211299
v 1.028564 -0.660191 -0.000000
v 1.506403 -0.660191 -0.238920
v 1.678823 -0.660191 -0.217334
v 1.506403 -0.829133 -0.168942
v 1.678823 -0.813869 -0.153679
v 1.506403 -0.899111 -0.000000
v 1.678823 -0.877525 -0.000000
v 1.506403 -0.829133 0.168942
v 1.678823 -0.813869 0.153679
v 1.506403 -0.660191 0.238920
v 1.678823 -0.660191 0.217334
v 1.506403 -0.491249 0.168942
v 1.678823 -0.506512 0.153679
v 1.506403 -0.421271 -0.000000
v 1.678823 -0.442856 -0.000000
v 1.506403 -0.491249 -0.168942
v 1.678823 -0.506512 -0.153679
v 1.678823 -0.829133 -0.168942
v 1.678823 -0.660191 -0.238920
v 1.678823 -0.899111 -0.000000
v 1.678823 -0.829133 0.168942
v 1.678823 -0.660191 0.238920
v 1.678823 -0.491249 0.168942
v 1.678823 -0.421271 -0.000000
v 1.678823 -0.491249 -0.168942
v 1.506403 -0.813869 -0.153679
v 1.506403 -0.660191 -0.217334
v 1.506403 -0.877525 -0.000000
v 1.506403 -0.813869 0.153679
v 1.506403 -0.660191 0.217334
v 1.506403 -0.506512 0.153679
v 1.506403 -0.442856 -0.000000
v 1.506403 -0.506512 -0.153679
v -0.318564 -0.000000 0.245547
v 0.283571 -0.000000 0.315082
v 1.626207 -0.000000 0.436379
v 0.926982 -0.000000 0.436379
v -0.321177 0.000000 -0.247016
v 0.283571 0.000000 -0.316880
v 1.626207 0.000000 -0.436379
v 0.926982 0.000000 -0.436379
vn -0.1148 0.0104 0.9933
vn -0.7362 0.6767 -0.0000
vn -0.0000 1.0000 -0.0000
vn -0.1957 0.0583 0.9789
vn -0.0699 0.6316 0.7721
vn -0.6456 0.5155 0.5635
vn -0.0004 0.6744 0.7384
vn -0.1148 -0.0000 -0.9934
vn -0.1950 0.0566 -0.9792
vn -0.0698 0.6316 -0.7721
vn -0.6455 0.5155 -0.5635
vn -0.0004 0.6744 -0.7384
vn -0.0000 0.0689 -0.9976
vn -0.7362 -0.6767 -0.0000
vn -0.0000 -1.0000 -0.0000
vn -0.0699 -0.6316 0.7721
vn -0.6456 -0.5155 0.5635
vn -0.0004 -0.6744 0.7384
vn -1.0000 -0.0000 0.0015
vn -0.0698 -0.6316 -0.7721
vn -0.6455 -0.5155 -0.5635
vn -0.0004 -0.6744 -0.7384
vn -0.0000 0.0689 0.9976
vn 0.4194 -0.3474 0.8387
vn 0.4194 -0.8387 0.3474
vn 0.4194 -0.8387 -0.3474
vn 0.4194 -0.3474 -0.8387
vn 0.4194 0.3474 -0.8387
vn 0.4194 0.8387 -0.3474
vn 0.4194 0.8387 0.3474
vn 0.4194 0.3474 0.8387
vn -0.0000 -0.3827 -0.9239
vn -0.0000 -0.9239 -0.3827
vn -0.0000 -0.9239 0.3827
vn -0.0000 -0.3827 0.9239
vn -0.0000 0.3827 0.9239
vn -0.0000 0.9239 0.3827
vn -0.0000 0.9239 -0.3827
vn -0.0000 0.3827 -0.9239
vn 1.0000 -0.0000 -0.0000
vn -0.0000 -0.0689 0.9976
vn -0.1957 -0.0583 0.9789
vn -0.1148 -0.0104 0.9933
vn -0.0000 -0.0689 -0.9976
vn -0.1950 -0.0566 -0.9792
vt 0.336944 0.395237
vt 0.336944 0.444469
vt 0.976122 0.674226
vt 0.076607 0.434885
vt 0.033363 0.387618
vt 0.976122 0.597798
vt 0.535437 0.395237
vt 0.535437 0.444469
vt 0.746620 0.597538
vt 0.746620 0.674226
vt 0.336944 0.395237
vt 0.336944 0.444469
vt 0.976122 0.674226
vt 0.188778 0.434885
vt 0.232021 0.387618
vt 0.976122 0.597798
vt 0.535437 0.395237
vt 0.535437 0.444469
vt 0.746620 0.597538
vt 0.746620 0.674226
vt 0.336944 0.296766
vt 0.336944 0.247535
vt 0.976122 0.017778
vt 0.076607 0.028907
vt 0.976122 0.094206
vt 0.033363 0.076173
vt 0.535437 0.296766
vt 0.535437 0.247535
vt 0.746620 0.094466
vt 0.746620 0.017778
vt 0.336944 0.296766
vt 0.336944 0.247535
vt 0.976122 0.017778
vt 0.188778 0.028907
vt 0.976122 0.094206
vt 0.232021 0.076173
vt 0.535437 0.296766
vt 0.535437 0.247535
vt 0.746620 0.094466
vt 0.746620 0.017778
vt 0.193350 0.364777
vt 0.175584 0.407669
vt 0.132692 0.425435
vt 0.089801 0.407669
vt 0.072035 0.364777
vt 0.089801 0.321886
vt 0.132692 0.304120
vt 0.175584 0.321886
vt 0.132692 0.364777
vt 0.518972 0.662524
vt 0.447253 0.629069
vt 0.518620 0.562204
vt 0.445031 0.588883
vt 0.448811 0.490534
vt 0.414758 0.562033
vt 0.348148 0.489992
vt 0.374627 0.563749
vt 0.276397 0.560486
vt 0.348339 0.594238
vt 0.276398 0.661409
vt 0.350307 0.634731
vt 0.346913 0.733188
vt 0.380815 0.661352
vt 0.447735 0.733201
vt 0.421094 0.659551
vt 0.449254 0.586837
vt 0.452817 0.630959
vt 0.416733 0.556482
vt 0.372580 0.559524
vt 0.342756 0.592323
vt 0.346060 0.636787
vt 0.378865 0.666925
vt 0.423147 0.663775
vt 0.156881 0.849582
vt 0.416165 0.604021
vt 0.179879 0.905105
vt 0.417408 0.620570
vt 0.101358 0.826584
vt 0.405475 0.591545
vt 0.045836 0.849582
vt 0.389635 0.591455
vt 0.022838 0.905105
vt 0.378438 0.603095
vt 0.045836 0.960627
vt 0.378568 0.619645
vt 0.101358 0.983625
vt 0.390134 0.631425
vt 0.156881 0.960627
vt 0.406253 0.631782
vt 0.193350 0.231331
vt 0.175584 0.274222
vt 0.132692 0.291988
vt 0.089801 0.274222
vt 0.072035 0.231331
vt 0.089801 0.188439
vt 0.132692 0.170673
vt 0.175584 0.188439
vt 0.132692 0.231331
vt 0.617755 0.980695
vt 0.634396 0.902999
vt 0.706469 0.957345
vt 0.674577 0.899811
vt 0.764304 0.895190
vt 0.699079 0.868729
vt 0.765492 0.802713
vt 0.695645 0.829719
vt 0.696791 0.732415
vt 0.664750 0.804390
vt 0.595057 0.732516
vt 0.624734 0.807964
vt 0.518972 0.806160
vt 0.599764 0.838782
vt 0.518972 0.923415
vt 0.604223 0.877589
vt 0.676799 0.903960
vt 0.632627 0.908584
vt 0.703932 0.870390
vt 0.700363 0.827451
vt 0.666470 0.798764
vt 0.622546 0.803866
vt 0.594819 0.837119
vt 0.599625 0.879833
vt 0.156881 0.669121
vt 0.658271 0.871523
vt 0.179879 0.724644
vt 0.641666 0.872942
vt 0.101358 0.646123
vt 0.669878 0.860669
vt 0.045836 0.669121
vt 0.669291 0.845188
vt 0.022838 0.724644
vt 0.657308 0.834519
vt 0.045836 0.780166
vt 0.640968 0.835306
vt 0.101358 0.803164
vt 0.629903 0.847152
vt 0.156881 0.780166
vt 0.629859 0.862651
vt 0.193350 0.097884
vt 0.175584 0.140775
vt 0.132692 0.158542
vt 0.089801 0.140775
vt 0.072035 0.097884
vt 0.089801 0.054993
vt 0.132692 0.037227
vt 0.175584 0.054993
vt 0.132692 0.097884
vt 0.351107 0.733201
vt 0.377467 0.808628
vt 0.276433 0.804498
vt 0.350125 0.839151
vt 0.276433 0.909799
vt 0.353162 0.880640
vt 0.353425 0.980695
vt 0.384682 0.907199
vt 0.454010 0.974259
vt 0.424602 0.902683
vt 0.518847 0.902602
vt 0.449491 0.872392
vt 0.518972 0.807229
vt 0.447030 0.833175
vt 0.451670 0.736267
vt 0.417683 0.806501
vt 0.345000 0.837181
vt 0.375319 0.803707
vt 0.347700 0.883418
vt 0.383303 0.912434
vt 0.427247 0.907167
vt 0.453777 0.873774
vt 0.451773 0.831114
vt 0.419626 0.801596
vt 0.159258 0.495791
vt 0.381322 0.848456
vt 0.182256 0.551314
vt 0.392832 0.836556
vt 0.103736 0.472793
vt 0.381398 0.865100
vt 0.048213 0.495791
vt 0.392919 0.876596
vt 0.025215 0.551314
vt 0.408722 0.876178
vt 0.048213 0.606836
vt 0.419115 0.863492
vt 0.103736 0.629834
vt 0.420186 0.847285
vt 0.159258 0.606836
vt 0.409000 0.836179
vt 0.337802 0.346002
vt 0.535437 0.346002
vt 0.044112 0.231896
vt 0.976122 0.346002
vt 0.746620 0.346002
vt 0.336944 0.346002
vt 0.535437 0.346002
vt 0.221272 0.231896
vt 0.976122 0.346002
vt 0.746620 0.346002
s 0
usemtl MediumEngineMaterial
f 156/188/1 17/21/1 21/27/1 157/189/1
f 8/10/2 16/20/2 14/18/2 6/8/2
f 6/8/3 14/18/3 10/12/3 2/2/3
f 157/189/4 21/27/4 23/29/4 159/192/4
f 6/8/5 2/2/5 1/1/5 5/7/5
f 8/10/6 6/8/6 5/7/6 7/9/6
f 3/3/7 8/10/7 7/9/7 4/6/7
f 3/3/3 11/13/3 16/20/3 8/10/3
f 161/194/8 29/37/8 25/31/8 160/193/8
f 163/197/9 31/39/9 29/37/9 161/194/9
f 14/18/10 13/17/10 9/11/10 10/12/10
f 16/20/11 15/19/11 13/17/11 14/18/11
f 11/13/12 12/16/12 15/19/12 16/20/12
f 162/196/13 28/35/13 31/39/13 163/197/13
f 22/28/14 30/38/14 32/40/14 24/30/14
f 18/22/15 26/32/15 30/38/15 22/28/15
f 22/28/16 21/27/16 17/21/16 18/22/16
f 24/30/17 23/29/17 21/27/17 22/28/17
f 19/23/18 20/25/18 23/29/18 24/30/18
f 18/22/19 17/21/19 156/188/19 1/1/19 2/2/19 10/12/19 9/11/19 160/193/19 25/31/19 26/32/19
f 30/38/20 26/32/20 25/31/20 29/37/20
f 32/40/21 30/38/21 29/37/21 31/39/21
f 27/33/22 32/40/22 31/39/22 28/35/22
f 24/30/15 32/40/15 27/33/15 19/23/15
f 159/192/23 23/29/23 20/25/23 158/191/23
f 33/41/24 34/42/24 41/49/24
f 34/42/25 35/43/25 41/49/25
f 35/43/26 36/44/26 41/49/26
f 36/44/27 37/45/27 41/49/27
f 37/45/28 38/46/28 41/49/28
f 38/46/29 39/47/29 41/49/29
f 39/47/30 40/48/30 41/49/30
f 40/48/31 33/41/31 41/49/31
f 42/50/32 59/67/32 58/66/32 44/52/32
f 44/52/33 58/66/33 60/68/33 46/54/33
f 46/54/34 60/68/34 61/69/34 48/56/34
f 48/56/35 61/69/35 62/70/35 50/58/35
f 50/58/36 62/70/36 63/71/36 52/60/36
f 52/60/37 63/71/37 64/72/37 54/62/37
f 47/55/37 45/53/37 66/75/37 68/79/37
f 54/62/38 64/72/38 65/73/38 56/64/38
f 56/64/39 65/73/39 59/67/39 42/50/39
f 43/51/40 45/53/40 58/66/40 59/67/40
f 45/53/40 47/55/40 60/68/40 58/66/40
f 47/55/40 49/57/40 61/69/40 60/68/40
f 49/57/40 51/59/40 62/70/40 61/69/40
f 51/59/40 53/61/40 63/71/40 62/70/40
f 53/61/40 55/63/40 64/72/40 63/71/40
f 55/63/40 57/65/40 65/73/40 64/72/40
f 57/65/40 43/51/40 59/67/40 65/73/40
f 66/74/40 67/76/40 73/88/40 72/86/40 71/84/40 70/82/40 69/80/40 68/78/40
f 57/65/34 55/63/34 72/87/34 73/89/34
f 53/61/32 51/59/32 70/83/32 71/85/32
f 49/57/38 47/55/38 68/79/38 69/81/38
f 45/53/36 43/51/36 67/77/36 66/75/36
f 43/51/35 57/65/35 73/89/35 67/77/35
f 55/63/33 53/61/33 71/85/33 72/87/33
f 51/59/39 49/57/39 69/81/39 70/83/39
f 74/90/24 75/91/24 82/98/24
f 75/91/25 76/92/25 82/98/25
f 76/92/26 77/93/26 82/98/26
f 77/93/27 78/94/27 82/98/27
f 78/94/28 79/95/28 82/98/28
f 79/95/29 80/96/29 82/98/29
f 80/96/30 81/97/30 82/98/30
f 81/97/31 74/90/31 82/98/31
f 83/99/32 100/116/32 99/115/32 85/101/32
f 85/101/33 99/115/33 101/117/33 87/103/33
f 87/103/34 101/117/34 102/118/34 89/105/34
f 89/105/35 102/118/35 103/119/35 91/107/35
f 91/107/36 103/119/36 104/120/36 93/109/36
f 93/109/37 104/120/37 105/121/37 95/111/37
f 88/104/37 86/102/37 107/124/37 109/128/37
f 95/111/38 105/121/38 106/122/38 97/113/38
f 97/113/39 106/122/39 100/116/39 83/99/39
f 84/100/40 86/102/40 99/115/40 100/116/40
f 86/102/40 88/104/40 101/117/40 99/115/40
f 88/104/40 90/106/40 102/118/40 101/117/40
f 90/106/40 92/108/40 103/119/40 102/118/40
f 92/108/40 94/110/40 104/120/40 103/119/40
f 94/110/40 96/112/40 105/121/40 104/120/40
f 96/112/40 98/114/40 106/122/40 105/121/40
f 98/114/40 84/100/40 100/116/40 106/122/40
f 107/123/40 108/125/40 114/137/40 113/135/40 112/133/40 111/131/40 110/129/40 109/127/40
f 98/114/34 96/112/34 113/136/34 114/138/34
f 94/110/32 92/108/32 111/132/32 112/134/32
f 90/106/38 88/104/38 109/128/38 110/130/38
f 86/102/36 84/100/36 108/126/36 107/124/36
f 84/100/35 98/114/35 114/138/35 108/126/35
f 96/112/33 94/110/33 112/134/33 113/136/33
f 92/108/39 90/106/39 110/130/39 111/132/39
f 115/139/24 116/140/24 123/147/24
f 116/140/25 117/141/25 123/147/25
f 117/141/26 118/142/26 123/147/26
f 118/142/27 119/143/27 123/147/27
f 119/143/28 120/144/28 123/147/28
f 120/144/29 121/145/29 123/147/29
f 121/145/30 122/146/30 123/147/30
f 122/146/31 115/139/31 123/147/31
f 124/148/32 141/165/32 140/164/32 126/150/32
f 126/150/33 140/164/33 142/166/33 128/152/33
f 128/152/34 142/166/34 143/167/34 130/154/34
f 130/154/35 143/167/35 144/168/35 132/156/35
f 132/156/36 144/168/36 145/169/36 134/158/36
f 134/158/37 145/169/37 146/170/37 136/160/37
f 129/153/37 127/151/37 148/173/37 150/177/37
f 136/160/38 146/170/38 147/171/38 138/162/38
f 138/162/39 147/171/39 141/165/39 124/148/39
f 125/149/40 127/151/40 140/164/40 141/165/40
f 127/151/40 129/153/40 142/166/40 140/164/40
f 129/153/40 131/155/40 143/167/40 142/166/40
f 131/155/40 133/157/40 144/168/40 143/167/40
f 133/157/40 135/159/40 145/169/40 144/168/40
f 135/159/40 137/161/40 146/170/40 145/169/40
f 137/161/40 139/163/40 147/171/40 146/170/40
f 139/163/40 125/149/40 141/165/40 147/171/40
f 148/172/40 149/174/40 155/186/40 154/184/40 153/182/40 152/180/40 151/178/40 150/176/40
f 139/163/34 137/161/34 154/185/34 155/187/34
f 135/159/32 133/157/32 152/181/32 153/183/32
f 131/155/38 129/153/38 150/177/38 151/179/38
f 127/151/36 125/149/36 149/175/36 148/173/36
f 125/149/35 139/163/35 155/187/35 149/175/35
f 137/161/33 135/159/33 153/183/33 154/185/33
f 133/157/39 131/155/39 151/179/39 152/181/39
f 38/46/40 77/93/40 76/92/40 75/91/40 40/48/40 39/47/40
f 79/95/40 118/142/40 117/141/40 116/140/40 81/97/40 80/96/40
f 4/5/40 158/190/40 20/26/40 19/24/40 120/144/40 119/143/40 118/142/40 79/95/40 78/94/40 77/93/40 38/46/40 37/45/40 36/44/40 3/4/40
f 11/14/40 34/42/40 33/41/40 40/48/40 75/91/40 74/90/40 81/97/40 116/140/40 115/139/40 122/146/40 27/34/40 28/36/40 162/195/40 12/15/40
f 27/34/40 122/146/40 121/145/40 120/144/40 19/24/40
f 3/4/40 36/44/40 35/43/40 34/42/40 11/14/40
f 7/9/41 159/192/41 158/191/41 4/6/41
f 5/7/42 157/189/42 159/192/42 7/9/42
f 1/1/43 156/188/43 157/189/43 5/7/43
f 12/16/44 162/196/44 163/197/44 15/19/44
f 15/19/45 163/197/45 161/194/45 13/17/45
f 13/17/8 161/194/8 160/193/8 9/11/8
