# Blender 3.3.0
# www.blender.org
mtllib Medium_Engine.mtl
o Cube
v -0.321177 0.150006 0.489332
v -0.321177 0.300000 0.276299
v 1.626207 1.000000 0.276299
v 1.626207 0.767148 0.489332
v 0.283571 0.150006 0.489332
v 0.283571 0.300000 0.276299
v 0.926982 0.766355 0.489332
v 0.926982 1.000000 0.276299
v -0.321177 0.150006 -0.489332
v -0.321177 0.300000 -0.276299
v 1.626207 1.000000 -0.276299
v 1.626207 0.767148 -0.489332
v 0.283571 0.150006 -0.489332
v 0.283571 0.300000 -0.276299
v 0.926982 0.766355 -0.489332
v 0.926982 1.000000 -0.276299
v -0.321177 -0.150006 0.489332
v -0.321177 -0.300000 0.276299
v 1.626207 -1.000000 0.276299
v 1.626207 -0.767148 0.489332
v 0.283571 -0.150006 0.489332
v 0.283571 -0.300000 0.276299
v 0.926982 -0.766355 0.489332
v 0.926982 -1.000000 0.276299
v -0.321177 -0.150006 -0.489332
v -0.321177 -0.300000 -0.276299
v 1.626207 -1.000000 -0.276299
v 1.626207 -0.767148 -0.489332
v 0.283571 -0.150006 -0.489332
v 0.283571 -0.300000 -0.276299
v 0.926982 -0.766355 -0.489332
v 0.926982 -1.000000 -0.276299
v 1.626207 0.654624 -0.298822
v 1.626207 0.865923 -0.211299
v 1.626207 0.953446 0.000000
v 1.626207 0.865923 0.211299
v 1.626207 0.654624 0.298822
v 1.626207 0.443326 0.211299
v 1.626207 0.355803 0.000000
v 1.626207 0.443326 -0.211299
v 1.028564 0.654624 0.000000
v 1.506403 0.654624 -0.238920
v 1.678823 0.654624 -0.217334
v 1.506403 0.485682 -0.168942
v 1.678823 0.500945 -0.153679
v 1.506403 0.415704 0.000000
v 1.678823 0.437290 -0.000000
v 1.506403 0.485682 0.168942
v 1.678823 0.500945 0.153679
v 1.506403 0.654624 0.238920
v 1.678823 0.654624 0.217334
v 1.506403 0.823566 0.168942
v 1.678823 0.808303 0.153679
v 1.506403 0.893544 0.000000
v 1.678823 0.871958 -0.000000
v 1.506403 0.823566 -0.168942
v 1.678823 0.808303 -0.153679
v 1.678823 0.485682 -0.168942
v 1.678823 0.654624 -0.238920
v 1.678823 0.415704 -0.000000
v 1.678823 0.485682 0.168942
v 1.678823 0.654624 0.238920
v 1.678823 0.823566 0.168942
v 1.678823 0.893544 -0.000000
v 1.678823 0.823566 -0.168942
v 1.506403 0.500945 -0.153679
v 1.506403 0.654624 -0.217334
v 1.506403 0.437290 -0.000000
v 1.506403 0.500945 0.153679
v 1.506403 0.654624 0.217334
v 1.506403 0.808303 0.153679
v 1.506403 0.871958 -0.000000
v 1.506403 0.808303 -0.153679
v 1.626207 -0.002783 -0.298822
v 1.626207 0.208516 -0.211299
v 1.626207 0.296038 0.000000
v 1.626207 0.208516 0.211299
v 1.626207 -0.002783 0.298822
v 1.626207 -0.214082 0.211299
v 1.626207 -0.301605 0.000000
v 1.626207 -0.214082 -0.211299
v 1.028564 -0.002783 0.000000
v 1.506403 -0.002784 -0.238920
v 1.678823 -0.002783 -0.217334
v 1.506403 -0.171725 -0.168942
v 1.678823 -0.156462 -0.153679
v 1.506403 -0.241703 0.000000
v 1.678823 -0.220118 -0.000000
v 1.506403 -0.171725 0.168942
v 1.678823 -0.156462 0.153679
v 1.506403 -0.002784 0.238920
v 1.678823 -0.002783 0.217334
v 1.506403 0.166158 0.168942
v 1.678823 0.150895 0.153679
v 1.506403 0.236136 0.000000
v 1.678823 0.214551 -0.000000
v 1.506403 0.166158 -0.168942
v 1.678823 0.150895 -0.153679
v 1.678823 -0.171725 -0.168942
v 1.678823 -0.002783 -0.238920
v 1.678823 -0.241703 -0.000000
v 1.678823 -0.171725 0.168942
v 1.678823 -0.002783 0.238920
v 1.678823 0.166158 0.168942
v 1.678823 0.236136 -0.000000
v 1.678823 0.166158 -0.168942
v 1.506403 -0.156462 -0.153679
v 1.506403 -0.002783 -0.217334
v 1.506403 -0.220118 -0.000000
v 1.506403 -0.156462 0.153679
v 1.506403 -0.002783 0.217334
v 1.506403 0.150895 0.153679
v 1.506403 0.214551 -0.000000
v 1.506403 0.150895 -0.153679
v 1.626207 -0.660191 -0.298822
v 1.626207 -0.448892 -0.211299
v 1.626207 -0.361369 0.000000
v 1.626207 -0.448892 0.211299
v 1.626207 -0.660191 0.298822
v 1.626207 -0.871489 0.211299
v 1.626207 -0.959012 0.000000
v 1.626207 -0.871489 -0.211299
v 1.028564 -0.660191 0.000000
v 1.506403 -0.660191 -0.238920
v 1.678823 -0.660191 -0.217334
v 1.506403 -0.829133 -0.168942
v 1.678823 -0.813869 -0.153679
v 1.506403 -0.899111 0.000000
v 1.678823 -0.877525 -0.000000
v 1.506403 -0.829133 0.168942
v 1.678823 -0.813869 0.153679
v 1.506403 -0.660191 0.238920
v 1.678823 -0.660191 0.217334
v 1.506403 -0.491249 0.168942
v 1.678823 -0.506512 0.153679
v 1.506403 -0.421271 0.000000
v 1.678823 -0.442856 -0.000000
v 1.506403 -0.491249 -0.168942
v 1.678823 -0.506512 -0.153679
v 1.678823 -0.829133 -0.168942
v 1.678823 -0.660191 -0.238920
v 1.678823 -0.899111 -0.000000
v 1.678823 -0.829133 0.168942
v 1.678823 -0.660191 0.238920
v 1.678823 -0.491249 0.168942
v 1.678823 -0.421271 -0.000000
v 1.678823 -0.491249 -0.168942
v 1.506403 -0.813869 -0.153679
v 1.506403 -0.660191 -0.217334
v 1.506403 -0.877525 -0.000000
v 1.506403 -0.813869 0.153679
v 1.506403 -0.660191 0.217334
v 1.506403 -0.506512 0.153679
v 1.506403 -0.442856 -0.000000
v 1.506403 -0.506512 -0.153679
v -0.318564 0.000000 0.486903
v 0.283571 0.000000 0.486824
v 1.626207 0.000000 0.436379
v 0.926982 0.000000 0.436379
v -0.321177 0.000000 -0.489332
v 0.283571 0.000000 -0.489332
v 1.626207 0.000000 -0.436379
v 0.926982 0.000000 -0.436379
vn 0.0001 0.0165 0.9999
vn -0.7362 0.6767 -0.0000
vn -0.0000 1.0000 -0.0000
vn 0.0679 0.0603 0.9959
vn -0.0000 0.8177 0.5757
vn -0.6052 0.5916 0.5327
vn -0.0004 0.6744 0.7384
vn -0.0000 -0.0000 -1.0000
vn 0.0686 0.0576 -0.9960
vn -0.0000 0.8177 -0.5757
vn -0.6052 0.5916 -0.5327
vn -0.0004 0.6744 -0.7384
vn -0.0000 0.0689 -0.9976
vn -0.7362 -0.6767 -0.0000
vn -0.0000 -1.0000 -0.0000
vn -0.0000 -0.8177 0.5757
vn -0.6052 -0.5916 0.5327
vn -0.0004 -0.6744 0.7384
vn -1.0000 -0.0000 0.0007
vn -0.0000 -0.8177 -0.5757
vn -0.6052 -0.5916 -0.5327
vn -0.0004 -0.6744 -0.7384
vn -0.0000 0.0689 0.9976
vn -0.4194 0.3474 -0.8387
vn -0.4194 0.8387 -0.3474
vn -0.4194 0.8387 0.3474
vn -0.4194 0.3474 0.8387
vn -0.4194 -0.3474 0.8387
vn -0.4194 -0.8387 0.3474
vn -0.4194 -0.8387 -0.3474
vn -0.4194 -0.3474 -0.8387
vn -0.0000 -0.3827 -0.9239
vn -0.0000 -0.9239 -0.3827
vn -0.0000 -0.9239 0.3827
vn -0.0000 -0.3827 0.9239
vn -0.0000 0.3827 0.9239
vn -0.0000 0.9239 0.3827
vn -0.0000 0.9239 -0.3827
vn -0.0000 0.3827 -0.9239
vn 1.0000 -0.0000 -0.0000
vn -1.0000 -0.0000 -0.0000
vn -0.0000 -0.0689 0.9976
vn 0.0679 -0.0603 0.9959
vn 0.0001 -0.0165 0.9999
vn -0.0000 -0.0689 -0.9976
vn 0.0686 -0.0576 -0.9960
vt 0.508808 0.000000
vt 0.508808 1.000000
vt 0.875000 0.695581
vt 0.625000 1.000000
vt 0.625000 0.054419
vt 0.625000 0.695581
vt 0.625000 0.750000
vt 0.595894 0.750000
vt 0.527529 0.942829
vt 0.817829 0.695581
vt 0.625000 0.942829
vt 0.595794 0.862403
vt 0.625000 0.862403
vt 0.737403 0.695581
vt 0.508808 0.000000
vt 0.508808 1.000000
vt 0.875000 0.695581
vt 0.625000 1.000000
vt 0.625000 0.054419
vt 0.625000 0.695581
vt 0.625000 0.750000
vt 0.595894 0.750000
vt 0.527529 0.942829
vt 0.817829 0.695581
vt 0.625000 0.942829
vt 0.595794 0.862403
vt 0.737403 0.695581
vt 0.625000 0.862403
vt 0.508808 1.000000
vt 0.508808 0.000000
vt 0.875000 0.695581
vt 0.625000 1.000000
vt 0.625000 0.054419
vt 0.625000 0.695581
vt 0.625000 0.750000
vt 0.595894 0.750000
vt 0.527529 0.942829
vt 0.817829 0.695581
vt 0.625000 0.942829
vt 0.595794 0.862403
vt 0.625000 0.862403
vt 0.737403 0.695581
vt 0.508808 0.000000
vt 0.508808 1.000000
vt 0.875000 0.695581
vt 0.625000 0.054419
vt 0.625000 1.000000
vt 0.625000 0.695581
vt 0.625000 0.750000
vt 0.595894 0.750000
vt 0.527529 0.942829
vt 0.817829 0.695581
vt 0.625000 0.942829
vt 0.595794 0.862403
vt 0.625000 0.862403
vt 0.737403 0.695581
vt 0.250000 0.490000
vt 0.419706 0.419706
vt 0.490000 0.250000
vt 0.419706 0.080294
vt 0.250000 0.010000
vt 0.080294 0.080294
vt 0.010000 0.250000
vt 0.080294 0.419706
vt 0.250000 0.250000
vt 1.000000 0.500000
vt 0.000000 0.500000
vt 0.250000 0.468317
vt 0.875000 0.500000
vt 0.404373 0.404373
vt 0.750000 0.500000
vt 0.468317 0.250000
vt 0.625000 0.500000
vt 0.404373 0.095627
vt 0.500000 0.500000
vt 0.250000 0.031683
vt 0.375000 0.500000
vt 0.095627 0.095627
vt 0.250000 0.500000
vt 0.031683 0.250000
vt 0.125000 0.500000
vt 0.095627 0.404373
vt 0.875000 1.000000
vt 0.419706 0.419706
vt 1.000000 1.000000
vt 0.000000 1.000000
vt 0.250000 0.490000
vt 0.750000 1.000000
vt 0.490000 0.250000
vt 0.625000 1.000000
vt 0.419706 0.080294
vt 0.500000 1.000000
vt 0.250000 0.010000
vt 0.375000 1.000000
vt 0.080294 0.080294
vt 0.250000 1.000000
vt 0.010000 0.250000
vt 0.125000 1.000000
vt 0.080294 0.419706
vt 0.404373 0.404373
vt 0.250000 0.468317
vt 0.468317 0.250000
vt 0.404373 0.095627
vt 0.250000 0.031683
vt 0.095627 0.095627
vt 0.031683 0.250000
vt 0.095627 0.404373
vt 0.250000 0.490000
vt 0.419706 0.419706
vt 0.490000 0.250000
vt 0.419706 0.080294
vt 0.250000 0.010000
vt 0.080294 0.080294
vt 0.010000 0.250000
vt 0.080294 0.419706
vt 0.250000 0.250000
vt 1.000000 0.500000
vt 0.000000 0.500000
vt 0.250000 0.468317
vt 0.875000 0.500000
vt 0.404373 0.404373
vt 0.750000 0.500000
vt 0.468317 0.250000
vt 0.625000 0.500000
vt 0.404373 0.095627
vt 0.500000 0.500000
vt 0.250000 0.031683
vt 0.375000 0.500000
vt 0.095627 0.095627
vt 0.250000 0.500000
vt 0.031683 0.250000
vt 0.125000 0.500000
vt 0.095627 0.404373
vt 0.875000 1.000000
vt 0.419706 0.419706
vt 1.000000 1.000000
vt 0.000000 1.000000
vt 0.250000 0.490000
vt 0.750000 1.000000
vt 0.490000 0.250000
vt 0.625000 1.000000
vt 0.419706 0.080294
vt 0.500000 1.000000
vt 0.250000 0.010000
vt 0.375000 1.000000
vt 0.080294 0.080294
vt 0.250000 1.000000
vt 0.010000 0.250000
vt 0.125000 1.000000
vt 0.080294 0.419706
vt 0.404373 0.404373
vt 0.250000 0.468317
vt 0.468317 0.250000
vt 0.404373 0.095627
vt 0.250000 0.031683
vt 0.095627 0.095627
vt 0.031683 0.250000
vt 0.095627 0.404373
vt 0.250000 0.490000
vt 0.419706 0.419706
vt 0.490000 0.250000
vt 0.419706 0.080294
vt 0.250000 0.010000
vt 0.080294 0.080294
vt 0.010000 0.250000
vt 0.080294 0.419706
vt 0.250000 0.250000
vt 1.000000 0.500000
vt 0.000000 0.500000
vt 0.250000 0.468317
vt 0.875000 0.500000
vt 0.404373 0.404373
vt 0.750000 0.500000
vt 0.468317 0.250000
vt 0.625000 0.500000
vt 0.404373 0.095627
vt 0.500000 0.500000
vt 0.250000 0.031683
vt 0.375000 0.500000
vt 0.095627 0.095627
vt 0.250000 0.500000
vt 0.031683 0.250000
vt 0.125000 0.500000
vt 0.095627 0.404373
vt 0.875000 1.000000
vt 0.419706 0.419706
vt 1.000000 1.000000
vt 0.000000 1.000000
vt 0.250000 0.490000
vt 0.750000 1.000000
vt 0.490000 0.250000
vt 0.625000 1.000000
vt 0.419706 0.080294
vt 0.500000 1.000000
vt 0.250000 0.010000
vt 0.375000 1.000000
vt 0.080294 0.080294
vt 0.250000 1.000000
vt 0.010000 0.250000
vt 0.125000 1.000000
vt 0.080294 0.419706
vt 0.404373 0.404373
vt 0.250000 0.468317
vt 0.468317 0.250000
vt 0.404373 0.095627
vt 0.250000 0.031683
vt 0.095627 0.095627
vt 0.031683 0.250000
vt 0.095627 0.404373
vt 0.508808 0.000000
vt 0.508808 1.000000
vt 0.527529 0.942829
vt 0.595894 0.750000
vt 0.595794 0.862403
vt 0.508808 0.000000
vt 0.508808 1.000000
vt 0.527529 0.942829
vt 0.595894 0.750000
vt 0.595794 0.862403
s 0
f 156/211/1 17/29/1 21/37/1 157/212/1
f 8/14/2 16/27/2 14/24/2 6/10/2
f 6/10/3 14/24/3 10/17/3 2/3/3
f 157/212/4 21/37/4 23/40/4 159/214/4
f 6/11/5 2/4/5 1/2/5 5/9/5
f 8/13/6 6/11/6 5/9/6 7/12/6
f 3/7/7 8/13/7 7/12/7 4/8/7
f 3/6/3 11/20/3 16/27/3 8/14/3
f 161/217/8 29/51/8 25/44/8 160/216/8
f 163/219/9 31/54/9 29/51/9 161/217/9
f 14/25/10 13/23/10 9/16/10 10/18/10
f 16/28/11 15/26/11 13/23/11 14/25/11
f 11/21/12 12/22/12 15/26/12 16/28/12
f 162/218/13 28/50/13 31/54/13 163/219/13
f 22/38/14 30/52/14 32/56/14 24/42/14
f 18/31/15 26/45/15 30/52/15 22/38/15
f 22/39/16 21/37/16 17/29/16 18/32/16
f 24/41/17 23/40/17 21/37/17 22/39/17
f 19/35/18 20/36/18 23/40/18 24/41/18
f 18/33/19 17/30/19 156/210/19 1/1/19 2/5/19 10/19/19 9/15/19 160/215/19 25/43/19 26/46/19
f 30/53/20 26/47/20 25/44/20 29/51/20
f 32/55/21 30/53/21 29/51/21 31/54/21
f 27/49/22 32/55/22 31/54/22 28/50/22
f 24/42/15 32/56/15 27/48/15 19/34/15
f 159/214/23 23/40/23 20/36/23 158/213/23
f 33/57/24 41/65/24 34/58/24
f 34/58/25 41/65/25 35/59/25
f 35/59/26 41/65/26 36/60/26
f 36/60/27 41/65/27 37/61/27
f 37/61/28 41/65/28 38/62/28
f 38/62/29 41/65/29 39/63/29
f 39/63/30 41/65/30 40/64/30
f 40/64/31 41/65/31 33/57/31
f 42/66/32 59/85/32 58/83/32 44/69/32
f 44/69/33 58/83/33 60/88/33 46/71/33
f 46/71/34 60/88/34 61/90/34 48/73/34
f 48/73/35 61/90/35 62/92/35 50/75/35
f 50/75/36 62/92/36 63/94/36 52/77/36
f 52/77/37 63/94/37 64/96/37 54/79/37
f 47/72/37 45/70/37 66/100/37 68/102/37
f 54/79/38 64/96/38 65/98/38 56/81/38
f 56/81/39 65/98/39 59/86/39 42/67/39
f 43/68/40 45/70/40 58/84/40 59/87/40
f 45/70/40 47/72/40 60/89/40 58/84/40
f 47/72/40 49/74/40 61/91/40 60/89/40
f 49/74/40 51/76/40 62/93/40 61/91/40
f 51/76/40 53/78/40 63/95/40 62/93/40
f 53/78/40 55/80/40 64/97/40 63/95/40
f 55/80/40 57/82/40 65/99/40 64/97/40
f 57/82/40 43/68/40 59/87/40 65/99/40
f 66/100/40 67/101/40 73/107/40 72/106/40 71/105/40 70/104/40 69/103/40 68/102/40
f 57/82/34 55/80/34 72/106/34 73/107/34
f 53/78/32 51/76/32 70/104/32 71/105/32
f 49/74/38 47/72/38 68/102/38 69/103/38
f 45/70/36 43/68/36 67/101/36 66/100/36
f 43/68/35 57/82/35 73/107/35 67/101/35
f 55/80/33 53/78/33 71/105/33 72/106/33
f 51/76/39 49/74/39 69/103/39 70/104/39
f 74/108/24 82/116/24 75/109/24
f 75/109/25 82/116/25 76/110/25
f 76/110/26 82/116/26 77/111/26
f 77/111/27 82/116/27 78/112/27
f 78/112/28 82/116/28 79/113/28
f 79/113/29 82/116/29 80/114/29
f 80/114/30 82/116/30 81/115/30
f 81/115/31 82/116/31 74/108/31
f 83/117/32 100/136/32 99/134/32 85/120/32
f 85/120/33 99/134/33 101/139/33 87/122/33
f 87/122/34 101/139/34 102/141/34 89/124/34
f 89/124/35 102/141/35 103/143/35 91/126/35
f 91/126/36 103/143/36 104/145/36 93/128/36
f 93/128/37 104/145/37 105/147/37 95/130/37
f 88/123/37 86/121/37 107/151/37 109/153/37
f 95/130/38 105/147/38 106/149/38 97/132/38
f 97/132/39 106/149/39 100/137/39 83/118/39
f 84/119/40 86/121/40 99/135/40 100/138/40
f 86/121/40 88/123/40 101/140/40 99/135/40
f 88/123/40 90/125/40 102/142/40 101/140/40
f 90/125/40 92/127/40 103/144/40 102/142/40
f 92/127/40 94/129/40 104/146/40 103/144/40
f 94/129/40 96/131/40 105/148/40 104/146/40
f 96/131/40 98/133/40 106/150/40 105/148/40
f 98/133/40 84/119/40 100/138/40 106/150/40
f 107/151/40 108/152/40 114/158/40 113/157/40 112/156/40 111/155/40 110/154/40 109/153/40
f 98/133/34 96/131/34 113/157/34 114/158/34
f 94/129/32 92/127/32 111/155/32 112/156/32
f 90/125/38 88/123/38 109/153/38 110/154/38
f 86/121/36 84/119/36 108/152/36 107/151/36
f 84/119/35 98/133/35 114/158/35 108/152/35
f 96/131/33 94/129/33 112/156/33 113/157/33
f 92/127/39 90/125/39 110/154/39 111/155/39
f 115/159/24 123/167/24 116/160/24
f 116/160/25 123/167/25 117/161/25
f 117/161/26 123/167/26 118/162/26
f 118/162/27 123/167/27 119/163/27
f 119/163/28 123/167/28 120/164/28
f 120/164/29 123/167/29 121/165/29
f 121/165/30 123/167/30 122/166/30
f 122/166/31 123/167/31 115/159/31
f 124/168/32 141/187/32 140/185/32 126/171/32
f 126/171/33 140/185/33 142/190/33 128/173/33
f 128/173/34 142/190/34 143/192/34 130/175/34
f 130/175/35 143/192/35 144/194/35 132/177/35
f 132/177/36 144/194/36 145/196/36 134/179/36
f 134/179/37 145/196/37 146/198/37 136/181/37
f 129/174/37 127/172/37 148/202/37 150/204/37
f 136/181/38 146/198/38 147/200/38 138/183/38
f 138/183/39 147/200/39 141/188/39 124/169/39
f 125/170/40 127/172/40 140/186/40 141/189/40
f 127/172/40 129/174/40 142/191/40 140/186/40
f 129/174/40 131/176/40 143/193/40 142/191/40
f 131/176/40 133/178/40 144/195/40 143/193/40
f 133/178/40 135/180/40 145/197/40 144/195/40
f 135/180/40 137/182/40 146/199/40 145/197/40
f 137/182/40 139/184/40 147/201/40 146/199/40
f 139/184/40 125/170/40 141/189/40 147/201/40
f 148/202/40 149/203/40 155/209/40 154/208/40 153/207/40 152/206/40 151/205/40 150/204/40
f 139/184/34 137/182/34 154/208/34 155/209/34
f 135/180/32 133/178/32 152/206/32 153/207/32
f 131/176/38 129/174/38 150/204/38 151/205/38
f 127/172/36 125/170/36 149/203/36 148/202/36
f 125/170/35 139/184/35 155/209/35 149/203/35
f 137/182/33 135/180/33 153/207/33 154/208/33
f 133/178/39 131/176/39 151/205/39 152/206/39
f 38/62/41 39/63/41 40/64/41 75/109/41 76/110/41 77/111/41
f 79/113/41 80/114/41 81/115/41 116/160/41 117/161/41 118/162/41
f 4/8/40 158/213/40 20/36/40 19/35/40 120/164/40 119/163/40 118/162/40 79/113/40 78/112/40 77/111/40 38/62/40 37/61/40 36/60/40 3/7/40
f 11/21/40 34/58/40 33/57/40 40/64/40 75/109/40 74/108/40 81/115/40 116/160/40 115/159/40 122/166/40 27/49/40 28/50/40 162/218/40 12/22/40
f 27/49/40 122/166/40 121/165/40 120/164/40 19/35/40
f 3/7/40 36/60/40 35/59/40 34/58/40 11/21/40
f 7/12/42 159/214/42 158/213/42 4/8/42
f 5/9/43 157/212/43 159/214/43 7/12/43
f 1/2/44 156/211/44 157/212/44 5/9/44
f 12/22/45 162/218/45 163/219/45 15/26/45
f 15/26/46 163/219/46 161/217/46 13/23/46
f 13/23/8 161/217/8 160/216/8 9/16/8
