# Blender 3.3.0
# www.blender.org
mtllib SlowEngine.mtl
o Cylinder.001
v -0.363065 -0.000000 -0.127611
v 0.802981 0.000000 -0.295311
v -0.363065 -0.063806 -0.110514
v 0.802981 -0.147656 -0.255747
v -0.363065 -0.110514 -0.063805
v 0.802981 -0.255747 -0.147656
v -0.363064 -0.127611 0.000000
v 0.802981 -0.295311 -0.000000
v -0.363064 -0.110514 0.063806
v 0.802981 -0.255747 0.147656
v -0.363064 -0.063806 0.110514
v 0.802981 -0.147656 0.255747
v -0.363064 -0.000000 0.127611
v 0.802981 0.000000 0.295311
v -0.363065 0.063805 0.110514
v 0.802981 0.147656 0.255747
v -0.363065 0.110514 0.063806
v 0.802981 0.255747 0.147656
v -0.363065 0.127611 0.000000
v 0.802981 0.295311 -0.000000
v -0.363065 0.110514 -0.063805
v 0.802981 0.255747 -0.147656
v -0.363065 0.063805 -0.110514
v 0.802981 0.147656 -0.255747
v 0.000000 -0.000000 -0.174912
v 0.144255 -0.000000 -0.372037
v 0.277785 -0.000000 -0.372037
v 0.414834 0.000000 -0.534245
v 0.602014 0.000000 -0.534245
v 0.681675 0.000000 -0.357111
v 0.681675 -0.178556 -0.309267
v 0.602014 -0.267123 -0.462670
v 0.414835 -0.267123 -0.462670
v 0.277785 -0.186018 -0.322193
v 0.144255 -0.186018 -0.322193
v 0.000000 -0.087456 -0.151478
v 0.681675 -0.309267 -0.178556
v 0.602014 -0.462670 -0.267123
v 0.414835 -0.462670 -0.267123
v 0.277785 -0.322193 -0.186018
v 0.144255 -0.322193 -0.186018
v 0.000000 -0.151478 -0.087456
v 0.681675 -0.357111 -0.000000
v 0.602015 -0.534245 -0.000000
v 0.414835 -0.534245 -0.000000
v 0.277785 -0.372037 0.000000
v 0.144255 -0.372037 0.000000
v 0.000000 -0.174912 0.000000
v 0.681675 -0.309267 0.178556
v 0.602015 -0.462670 0.267123
v 0.414835 -0.462670 0.267123
v 0.277785 -0.322193 0.186018
v 0.144255 -0.322193 0.186018
v 0.000000 -0.151478 0.087456
v 0.681675 -0.178556 0.309267
v 0.602015 -0.267123 0.462670
v 0.414835 -0.267123 0.462670
v 0.277785 -0.186018 0.322193
v 0.144255 -0.186018 0.322193
v 0.000000 -0.087456 0.151478
v 0.681675 0.000000 0.357111
v 0.602015 0.000000 0.534245
v 0.414835 0.000000 0.534245
v 0.277785 -0.000000 0.372037
v 0.144255 -0.000000 0.372037
v 0.000000 -0.000000 0.174912
v 0.681675 0.178556 0.309267
v 0.602014 0.267123 0.462670
v 0.414835 0.267123 0.462670
v 0.277785 0.186018 0.322193
v 0.144255 0.186018 0.322193
v 0.000000 0.087456 0.151478
v 0.681675 0.309267 0.178556
v 0.602014 0.462670 0.267123
v 0.414834 0.462670 0.267123
v 0.277785 0.322193 0.186018
v 0.144255 0.322193 0.186018
v 0.000000 0.151478 0.087456
v 0.681675 0.357111 -0.000000
v 0.602014 0.534246 -0.000000
v 0.414834 0.534246 -0.000000
v 0.277785 0.372037 0.000000
v 0.144255 0.372037 0.000000
v 0.000000 0.174912 0.000000
v 0.681675 0.309267 -0.178556
v 0.602014 0.462670 -0.267123
v 0.414834 0.462670 -0.267123
v 0.277785 0.322193 -0.186018
v 0.144255 0.322193 -0.186018
v -0.000000 0.151478 -0.087456
v 0.681675 0.178556 -0.309267
v 0.602014 0.267123 -0.462670
v 0.414834 0.267123 -0.462670
v 0.277785 0.186018 -0.322193
v 0.144255 0.186018 -0.322193
v 0.000000 0.087456 -0.151478
v 0.763333 -0.178556 -0.309267
v 0.763333 0.000000 -0.357111
v 0.763333 -0.309267 -0.178556
v 0.763333 -0.357111 -0.000000
v 0.763333 -0.309267 0.178556
v 0.763333 -0.178556 0.309267
v 0.763333 0.000000 0.357111
v 0.763333 0.178556 0.309267
v 0.763333 0.309267 0.178556
v 0.763333 0.357111 -0.000000
v 0.763333 0.309267 -0.178556
v 0.763333 0.178556 -0.309267
v 0.681675 -0.121648 -0.210701
v 0.681675 0.000000 -0.243297
v 0.681675 -0.210701 -0.121648
v 0.681675 -0.243297 -0.000000
v 0.681675 -0.210701 0.121648
v 0.681675 -0.121648 0.210701
v 0.681675 0.000000 0.243297
v 0.681675 0.121648 0.210701
v 0.681675 0.210701 0.121648
v 0.681675 0.243297 -0.000000
v 0.681675 0.210701 -0.121648
v 0.681675 0.121648 -0.210701
v 0.884041 -0.000000 -0.179947
v 0.884041 0.089973 -0.155839
v 0.884041 0.155839 -0.089973
v 0.884041 0.179947 0.000000
v 0.884041 0.155839 0.089973
v 0.884041 0.089973 0.155839
v 0.884041 -0.000000 0.179947
v 0.884041 -0.089973 0.155839
v 0.884041 -0.155839 0.089973
v 0.884041 -0.179947 0.000000
v 0.884041 -0.155839 -0.089973
v 0.884041 -0.089974 -0.155839
v -0.216129 0.000000 -0.000000
v 0.884041 -0.000000 -0.223224
v 0.884041 0.111612 -0.193318
v 0.884041 0.193318 -0.111612
v 0.884041 0.223224 0.000000
v 0.884041 0.193318 0.111612
v 0.884041 0.111612 0.193318
v 0.884041 -0.000000 0.223224
v 0.884041 -0.111612 0.193318
v 0.884041 -0.193318 0.111612
v 0.884041 -0.223224 0.000000
v 0.884041 -0.193318 -0.111612
v 0.884041 -0.111612 -0.193318
v 0.670748 0.000000 -0.143327
v 0.670748 0.071664 -0.124125
v 0.670748 0.124125 -0.071664
v 0.670748 0.143327 0.000000
v 0.670748 0.124125 0.071664
v 0.670748 0.071664 0.124125
v 0.670748 0.000000 0.143327
v 0.670748 -0.071664 0.124125
v 0.670748 -0.124125 0.071664
v 0.670748 -0.143327 0.000000
v 0.670748 -0.124125 -0.071664
v 0.670748 -0.071664 -0.124125
vn -0.0000 -0.2588 -0.9659
vn -0.0000 -0.7071 -0.7071
vn -0.0000 -0.9659 -0.2588
vn -0.0000 -0.9659 0.2588
vn -0.0000 -0.7071 0.7071
vn -0.0000 -0.2588 0.9659
vn -0.0000 0.2588 0.9659
vn -0.0000 0.7071 0.7071
vn -0.0000 0.9659 0.2588
vn -0.0000 0.9659 -0.2588
vn 0.3827 -0.8924 0.2391
vn -0.0000 0.7071 -0.7071
vn -0.0000 0.2588 -0.9659
vn -1.0000 -0.0000 -0.0000
vn -0.1249 0.7016 -0.7016
vn -0.7971 0.1563 -0.5833
vn -0.7527 0.1704 -0.6359
vn 0.9066 0.1092 -0.4077
vn -0.1249 0.9584 -0.2568
vn -0.7971 0.4270 -0.4270
vn -0.7527 0.4655 -0.4655
vn 0.9066 0.2985 -0.2985
vn -0.1249 0.9584 0.2568
vn -0.7971 0.5833 -0.1563
vn -0.7527 0.6359 -0.1704
vn 0.9066 0.4077 -0.1092
vn -0.1249 0.7016 0.7016
vn -0.7971 0.5833 0.1563
vn -0.7527 0.6359 0.1704
vn 0.9066 0.4077 0.1092
vn -0.1249 0.2568 0.9584
vn -0.7971 0.4270 0.4270
vn -0.7527 0.4655 0.4655
vn 0.9066 0.2985 0.2985
vn -0.1249 -0.2568 0.9584
vn -0.7971 0.1563 0.5833
vn -0.7527 0.1704 0.6359
vn 0.9066 0.1092 0.4077
vn -0.1249 -0.7016 0.7016
vn -0.7971 -0.1563 0.5833
vn -0.7527 -0.1704 0.6359
vn 0.9066 -0.1092 0.4077
vn -0.1249 -0.9584 0.2568
vn -0.7971 -0.4270 0.4270
vn -0.7527 -0.4655 0.4655
vn 0.9066 -0.2985 0.2985
vn -0.1249 -0.9584 -0.2568
vn -0.7971 -0.5833 0.1563
vn -0.7527 -0.6359 0.1704
vn 0.9066 -0.4077 0.1092
vn -0.1249 -0.7016 -0.7016
vn -0.7971 -0.5833 -0.1563
vn -0.7527 -0.6359 -0.1704
vn 0.9066 -0.4077 -0.1092
vn -0.1249 -0.2568 -0.9584
vn -0.7971 -0.4270 -0.4270
vn -0.7527 -0.4655 -0.4655
vn 0.9066 -0.2985 -0.2985
vn -0.7971 -0.1563 -0.5833
vn -0.7527 -0.1704 -0.6359
vn 0.9066 -0.1092 -0.4077
vn -0.1249 0.2568 -0.9584
vn 0.8330 -0.1432 -0.5344
vn 0.8330 -0.3912 -0.3912
vn 0.8330 -0.5344 -0.1432
vn 0.8330 -0.5344 0.1432
vn 0.8330 -0.3912 0.3912
vn 0.8330 -0.1432 0.5344
vn 0.8330 0.1432 0.5344
vn 0.8330 0.3912 0.3912
vn 0.8330 0.5344 0.1432
vn 0.8330 0.5344 -0.1432
vn 0.8330 0.3912 -0.3912
vn 0.8330 0.1432 -0.5344
vn 1.0000 -0.0000 -0.0000
vn 0.3827 -0.2391 -0.8924
vn 0.3827 0.8924 -0.2391
vn 0.3827 -0.6533 0.6533
vn 0.3827 0.2391 0.8924
vn 0.3827 -0.6533 -0.6533
vn 0.3827 0.6533 -0.6533
vn 0.3827 -0.2391 0.8924
vn 0.3827 0.6533 0.6533
vn 0.3827 -0.8924 -0.2391
vn 0.3827 0.2391 -0.8924
vn 0.3827 0.8924 0.2391
vn -0.1923 0.2540 -0.9479
vn -0.1923 0.6939 -0.6939
vn -0.1923 0.9479 -0.2540
vn -0.1923 0.9479 0.2540
vn -0.1923 0.6939 0.6939
vn -0.1923 0.2540 0.9479
vn -0.1923 -0.2540 0.9479
vn -0.1923 -0.6939 0.6939
vn -0.1923 -0.9479 0.2540
vn -0.1923 -0.9479 -0.2540
vn 0.1636 0.6976 0.6976
vn -0.1923 -0.6939 -0.6939
vn -0.1923 -0.2540 -0.9479
vn 0.1636 -0.2553 0.9529
vn 0.1636 0.6976 -0.6976
vn 0.1636 -0.6976 -0.6976
vn 0.1636 0.2553 0.9529
vn 0.1636 -0.6976 0.6976
vn 0.1636 0.9529 -0.2553
vn 0.1636 -0.2553 -0.9529
vn 0.1636 -0.9529 0.2553
vn 0.1636 0.9529 0.2553
vn 0.1636 0.2553 -0.9529
vn 0.1636 -0.9529 -0.2553
vt 0.750000 0.490000
vt 1.000000 0.500000
vt 0.000000 0.500000
vt 0.250000 0.448467
vt 0.870000 0.457846
vt 0.916667 0.500000
vt 0.349233 0.421877
vt 0.957846 0.370000
vt 0.833333 0.500000
vt 0.421877 0.349233
vt 0.990000 0.250000
vt 0.750000 0.500000
vt 0.448467 0.250000
vt 0.957846 0.130000
vt 0.666667 0.500000
vt 0.421877 0.150767
vt 0.870000 0.042154
vt 0.583333 0.500000
vt 0.349233 0.078123
vt 0.750000 0.010000
vt 0.500000 0.500000
vt 0.250000 0.051533
vt 0.630000 0.042154
vt 0.416667 0.500000
vt 0.150767 0.078123
vt 0.542154 0.130000
vt 0.333333 0.500000
vt 0.078123 0.150767
vt 0.510000 0.250000
vt 0.250000 0.500000
vt 0.051533 0.250000
vt 0.542154 0.370000
vt 0.166667 0.500000
vt 0.078123 0.349233
vt 0.630000 0.457846
vt 0.083333 0.500000
vt 0.150767 0.421877
vt 1.000000 0.610054
vt 0.000000 0.610054
vt 0.000000 0.679348
vt 1.000000 0.679348
vt 0.000000 0.743490
vt 1.000000 0.743490
vt 0.000000 0.809322
vt 1.000000 0.809322
vt 0.000000 0.899235
vt 1.000000 0.899235
vt 0.000000 0.937500
vt 1.000000 0.937500
vt 0.916667 0.937500
vt 0.916667 0.899235
vt 0.916667 0.809322
vt 0.916667 0.743490
vt 0.916667 0.679348
vt 0.916667 0.610054
vt 0.833333 0.937500
vt 0.833333 0.899235
vt 0.833333 0.809322
vt 0.833333 0.743490
vt 0.833333 0.679348
vt 0.833333 0.610054
vt 0.750000 0.937500
vt 0.750000 0.899235
vt 0.750000 0.809322
vt 0.750000 0.743490
vt 0.750000 0.679348
vt 0.750000 0.610054
vt 0.666667 0.937500
vt 0.666667 0.899235
vt 0.666667 0.809322
vt 0.666667 0.743490
vt 0.666667 0.679348
vt 0.666667 0.610054
vt 0.583333 0.937500
vt 0.583334 0.899235
vt 0.583333 0.809322
vt 0.583333 0.743490
vt 0.583333 0.679348
vt 0.583333 0.610054
vt 0.500000 0.937500
vt 0.500000 0.899235
vt 0.500000 0.809322
vt 0.500000 0.743490
vt 0.500000 0.679348
vt 0.500000 0.610054
vt 0.416667 0.937500
vt 0.416667 0.899235
vt 0.416667 0.809322
vt 0.416667 0.743490
vt 0.416667 0.679348
vt 0.416667 0.610054
vt 0.333333 0.937500
vt 0.333333 0.899235
vt 0.333333 0.809322
vt 0.333333 0.743490
vt 0.333333 0.679348
vt 0.333333 0.610054
vt 0.250000 0.937500
vt 0.250000 0.899235
vt 0.250000 0.809322
vt 0.250000 0.743490
vt 0.250000 0.679348
vt 0.250000 0.610054
vt 0.166667 0.937500
vt 0.166667 0.899235
vt 0.166667 0.809322
vt 0.166667 0.743490
vt 0.166667 0.679348
vt 0.166667 0.610054
vt 0.083333 0.937500
vt 0.083333 0.899235
vt 0.083333 0.809322
vt 0.083333 0.743490
vt 0.083333 0.679348
vt 0.083333 0.610054
vt 0.916667 1.000000
vt 0.370000 0.457846
vt 1.000000 1.000000
vt 0.000000 1.000000
vt 0.250000 0.490000
vt 0.833333 1.000000
vt 0.457846 0.370000
vt 0.750000 1.000000
vt 0.490000 0.250000
vt 0.666667 1.000000
vt 0.457846 0.130000
vt 0.583333 1.000000
vt 0.370000 0.042154
vt 0.500000 1.000000
vt 0.250000 0.010000
vt 0.416667 1.000000
vt 0.130000 0.042154
vt 0.333333 1.000000
vt 0.042154 0.130000
vt 0.250000 1.000000
vt 0.010000 0.250000
vt 0.166667 1.000000
vt 0.042154 0.370000
vt 0.083333 1.000000
vt 0.130000 0.457846
vt 0.349233 0.421877
vt 0.250000 0.448467
vt 0.421877 0.349233
vt 0.448467 0.250000
vt 0.421877 0.150767
vt 0.349233 0.078123
vt 0.250000 0.051533
vt 0.150767 0.078123
vt 0.078123 0.150767
vt 0.051533 0.250000
vt 0.078123 0.349233
vt 0.150767 0.421877
vt 0.750000 0.443471
vt 0.846735 0.417550
vt 0.917550 0.346735
vt 0.943470 0.250000
vt 0.917550 0.153265
vt 0.846735 0.082450
vt 0.750000 0.056530
vt 0.653265 0.082450
vt 0.582450 0.153265
vt 0.556530 0.250000
vt 0.582450 0.346735
vt 0.653265 0.417550
vt 0.250000 0.250000
vt 0.250000 0.490000
vt 0.750000 0.490000
vt 0.370000 0.457846
vt 0.870000 0.457846
vt 0.457846 0.370000
vt 0.957846 0.370000
vt 0.490000 0.250000
vt 0.990000 0.250000
vt 0.457846 0.130000
vt 0.957846 0.130000
vt 0.370000 0.042154
vt 0.870000 0.042154
vt 0.250000 0.010000
vt 0.750000 0.010000
vt 0.130000 0.042154
vt 0.630000 0.042154
vt 0.042154 0.130000
vt 0.542154 0.130000
vt 0.010000 0.250000
vt 0.510000 0.250000
vt 0.042154 0.370000
vt 0.542154 0.370000
vt 0.130000 0.457846
vt 0.630000 0.457846
vt 0.750000 0.443471
vt 0.846735 0.417550
vt 0.917550 0.346735
vt 0.943470 0.250000
vt 0.917550 0.153265
vt 0.846735 0.082450
vt 0.750000 0.056530
vt 0.653265 0.082450
vt 0.582450 0.153265
vt 0.556530 0.250000
vt 0.582450 0.346735
vt 0.653265 0.417550
s 0
f 30/49/1 98/118/1 97/116/1 31/50/1
f 31/50/2 97/116/2 99/121/2 37/56/2
f 37/56/3 99/121/3 100/123/3 43/62/3
f 43/62/4 100/123/4 101/125/4 49/68/4
f 49/68/5 101/125/5 102/127/5 55/74/5
f 55/74/6 102/127/6 103/129/6 61/80/6
f 61/80/7 103/129/7 104/131/7 67/86/7
f 67/86/8 104/131/8 105/133/8 73/92/8
f 73/92/9 105/133/9 106/135/9 79/98/9
f 79/98/10 106/135/10 107/137/10 85/104/10
f 22/34/11 20/31/11 118/150/11 119/151/11
f 85/104/12 107/137/12 108/139/12 91/110/12
f 91/110/13 108/139/13 98/119/13 30/48/13
f 1/1/14 3/5/14 5/8/14 7/11/14 9/14/14 11/17/14 13/20/14 15/23/14 17/26/14 19/29/14 21/32/14 23/35/14
f 21/33/15 90/109/15 96/115/15 23/36/15
f 96/115/16 95/114/16 26/40/16 25/39/16
f 95/114/13 94/113/13 27/42/13 26/40/13
f 94/113/17 93/112/17 28/44/17 27/42/17
f 93/112/13 92/111/13 29/46/13 28/44/13
f 92/111/18 91/110/18 30/48/18 29/46/18
f 19/30/19 84/103/19 90/109/19 21/33/19
f 90/109/20 89/108/20 95/114/20 96/115/20
f 89/108/12 88/107/12 94/113/12 95/114/12
f 88/107/21 87/106/21 93/112/21 94/113/21
f 87/106/12 86/105/12 92/111/12 93/112/12
f 86/105/22 85/104/22 91/110/22 92/111/22
f 17/27/23 78/97/23 84/103/23 19/30/23
f 84/103/24 83/102/24 89/108/24 90/109/24
f 83/102/10 82/101/10 88/107/10 89/108/10
f 82/101/25 81/100/25 87/106/25 88/107/25
f 81/100/10 80/99/10 86/105/10 87/106/10
f 80/99/26 79/98/26 85/104/26 86/105/26
f 15/24/27 72/91/27 78/97/27 17/27/27
f 78/97/28 77/96/28 83/102/28 84/103/28
f 77/96/9 76/95/9 82/101/9 83/102/9
f 76/95/29 75/94/29 81/100/29 82/101/29
f 75/94/9 74/93/9 80/99/9 81/100/9
f 74/93/30 73/92/30 79/98/30 80/99/30
f 13/21/31 66/85/31 72/91/31 15/24/31
f 72/91/32 71/90/32 77/96/32 78/97/32
f 71/90/8 70/89/8 76/95/8 77/96/8
f 70/89/33 69/88/33 75/94/33 76/95/33
f 69/88/8 68/87/8 74/93/8 75/94/8
f 68/87/34 67/86/34 73/92/34 74/93/34
f 11/18/35 60/79/35 66/85/35 13/21/35
f 66/85/36 65/84/36 71/90/36 72/91/36
f 65/84/7 64/83/7 70/89/7 71/90/7
f 64/83/37 63/82/37 69/88/37 70/89/37
f 63/82/7 62/81/7 68/87/7 69/88/7
f 62/81/38 61/80/38 67/86/38 68/87/38
f 9/15/39 54/73/39 60/79/39 11/18/39
f 60/79/40 59/78/40 65/84/40 66/85/40
f 59/78/6 58/77/6 64/83/6 65/84/6
f 58/77/41 57/76/41 63/82/41 64/83/41
f 57/76/6 56/75/6 62/81/6 63/82/6
f 56/75/42 55/74/42 61/80/42 62/81/42
f 7/12/43 48/67/43 54/73/43 9/15/43
f 54/73/44 53/72/44 59/78/44 60/79/44
f 53/72/5 52/71/5 58/77/5 59/78/5
f 52/71/45 51/70/45 57/76/45 58/77/45
f 51/70/5 50/69/5 56/75/5 57/76/5
f 50/69/46 49/68/46 55/74/46 56/75/46
f 5/9/47 42/61/47 48/67/47 7/12/47
f 48/67/48 47/66/48 53/72/48 54/73/48
f 47/66/4 46/65/4 52/71/4 53/72/4
f 46/65/49 45/64/49 51/70/49 52/71/49
f 45/64/4 44/63/4 50/69/4 51/70/4
f 44/63/50 43/62/50 49/68/50 50/69/50
f 3/6/51 36/55/51 42/61/51 5/9/51
f 42/61/52 41/60/52 47/66/52 48/67/52
f 41/60/3 40/59/3 46/65/3 47/66/3
f 40/59/53 39/58/53 45/64/53 46/65/53
f 39/58/3 38/57/3 44/63/3 45/64/3
f 38/57/54 37/56/54 43/62/54 44/63/54
f 1/2/55 25/38/55 36/55/55 3/6/55
f 36/55/56 35/54/56 41/60/56 42/61/56
f 35/54/2 34/53/2 40/59/2 41/60/2
f 34/53/57 33/52/57 39/58/57 40/59/57
f 33/52/2 32/51/2 38/57/2 39/58/2
f 32/51/58 31/50/58 37/56/58 38/57/58
f 25/38/59 26/41/59 35/54/59 36/55/59
f 26/41/1 27/43/1 34/53/1 35/54/1
f 27/43/60 28/45/60 33/52/60 34/53/60
f 28/45/1 29/47/1 32/51/1 33/52/1
f 29/47/61 30/49/61 31/50/61 32/51/61
f 23/36/62 96/115/62 25/39/62 1/3/62
f 2/4/63 4/7/63 97/117/63 98/120/63
f 4/7/64 6/10/64 99/122/64 97/117/64
f 6/10/65 8/13/65 100/124/65 99/122/65
f 8/13/66 10/16/66 101/126/66 100/124/66
f 10/16/67 12/19/67 102/128/67 101/126/67
f 12/19/68 14/22/68 103/130/68 102/128/68
f 14/22/69 16/25/69 104/132/69 103/130/69
f 16/25/70 18/28/70 105/134/70 104/132/70
f 18/28/71 20/31/71 106/136/71 105/134/71
f 20/31/72 22/34/72 107/138/72 106/136/72
f 22/34/73 24/37/73 108/140/73 107/138/73
f 24/37/74 2/4/74 98/120/74 108/140/74
f 109/141/75 110/142/75 120/152/75 119/151/75 118/150/75 117/149/75 116/148/75 115/147/75 114/146/75 113/145/75 112/144/75 111/143/75
f 16/25/76 14/22/76 115/147/76 116/148/76
f 10/16/77 8/13/77 112/144/77 113/145/77
f 24/37/78 22/34/78 119/151/78 120/152/78
f 4/7/79 2/4/79 110/142/79 109/141/79
f 18/28/80 16/25/80 116/148/80 117/149/80
f 12/19/81 10/16/81 113/145/81 114/146/81
f 2/4/82 24/37/82 120/152/82 110/142/82
f 6/10/83 4/7/83 109/141/83 111/143/83
f 20/31/84 18/28/84 117/149/84 118/150/84
f 14/22/85 12/19/85 114/146/85 115/147/85
f 8/13/86 6/10/86 111/143/86 112/144/86
f 134/166/87 133/165/87 135/168/87
f 135/168/88 133/165/88 136/170/88
f 136/170/89 133/165/89 137/172/89
f 137/172/90 133/165/90 138/174/90
f 138/174/91 133/165/91 139/176/91
f 139/176/92 133/165/92 140/178/92
f 140/178/93 133/165/93 141/180/93
f 141/180/94 133/165/94 142/182/94
f 142/182/95 133/165/95 143/184/95
f 143/184/96 133/165/96 144/186/96
f 131/163/97 132/164/97 157/201/97 156/200/97
f 144/186/98 133/165/98 145/188/98
f 145/188/99 133/165/99 134/166/99
f 122/154/75 121/153/75 134/167/75 135/169/75
f 123/155/75 122/154/75 135/169/75 136/171/75
f 124/156/75 123/155/75 136/171/75 137/173/75
f 125/157/75 124/156/75 137/173/75 138/175/75
f 126/158/75 125/157/75 138/175/75 139/177/75
f 127/159/75 126/158/75 139/177/75 140/179/75
f 128/160/75 127/159/75 140/179/75 141/181/75
f 129/161/75 128/160/75 141/181/75 142/183/75
f 130/162/75 129/161/75 142/183/75 143/185/75
f 131/163/75 130/162/75 143/185/75 144/187/75
f 132/164/75 131/163/75 144/187/75 145/189/75
f 121/153/75 132/164/75 145/189/75 134/167/75
f 146/190/75 147/191/75 148/192/75 149/193/75 150/194/75 151/195/75 152/196/75 153/197/75 154/198/75 155/199/75 156/200/75 157/201/75
f 121/153/100 122/154/100 147/191/100 146/190/100
f 128/160/101 129/161/101 154/198/101 153/197/101
f 125/157/102 126/158/102 151/195/102 150/194/102
f 132/164/103 121/153/103 146/190/103 157/201/103
f 122/154/104 123/155/104 148/192/104 147/191/104
f 129/161/105 130/162/105 155/199/105 154/198/105
f 126/158/106 127/159/106 152/196/106 151/195/106
f 123/155/107 124/156/107 149/193/107 148/192/107
f 130/162/108 131/163/108 156/200/108 155/199/108
f 127/159/109 128/160/109 153/197/109 152/196/109
f 124/156/110 125/157/110 150/194/110 149/193/110
