# Blender 3.3.0
# www.blender.org
mtllib SCVSML_Thruster.mtl
o Object_1
v 0.090713 0.036724 -0.204925
v 0.045715 0.127724 -0.204925
v -0.091286 0.036724 -0.204925
v -0.045285 0.127724 -0.204925
v -0.045285 -0.054275 -0.204925
v 0.045715 -0.054275 -0.204925
v -0.000285 0.042725 -1.666977
vn -0.0000 -0.9978 -0.0662
vn 0.8949 -0.4425 -0.0575
vn -0.0000 0.9983 -0.0580
vn -0.8912 0.4505 -0.0536
vn 0.8951 0.4426 -0.0539
vn -0.8910 -0.4504 -0.0573
vn -0.0000 -0.0000 -1.0000
vt 0.000000 1.000000
vt 0.468750 0.031250
vt 0.343750 1.000000
vt 0.000000 0.343750
vt 0.984375 1.000000
vt 0.468750 1.000000
vt 0.656250 1.000000
vt 0.000000 0.656250
vt 0.656250 1.000000
vt 0.937500 0.656250
vt 0.343750 1.000000
vt 0.968750 0.343750
vt 0.468750 0.015625
s 0
usemtl tex_7_transparent
f 7/13/1 6/11/1 5/9/1
f 7/13/2 1/1/2 6/11/2
f 7/13/3 4/7/3 2/3/3
f 7/13/4 3/5/4 4/7/4
f 7/13/5 2/3/5 1/1/5
f 7/13/6 5/9/6 3/5/6
usemtl tex_8_transparent
f 4/8/7 5/10/7 3/6/7
f 6/12/7 2/4/7 1/2/7
f 2/4/7 6/12/7 5/10/7 4/8/7
