# Blender 3.3.0
# www.blender.org
mtllib Arrow.mtl
o Cone
v 0.000000 0.508974 -0.245559
v 0.122779 0.508974 -0.212660
v 0.212660 0.508974 -0.122779
v 0.245559 0.508974 0.000000
v 0.212660 0.508974 0.122779
v 0.122779 0.508974 0.212660
v 0.000000 0.508974 0.245559
v -0.122779 0.508974 0.212660
v -0.212660 0.508974 0.122779
v -0.245559 0.508974 0.000000
v -0.212660 0.508974 -0.122779
v -0.122779 0.508974 -0.212660
v 0.000000 1.000092 0.000000
v 0.000000 0.000000 -0.109113
v 0.000000 0.528173 -0.109113
v 0.054557 0.000000 -0.094495
v 0.054557 0.528173 -0.094495
v 0.094495 0.000000 -0.054557
v 0.094495 0.528173 -0.054557
v 0.109113 0.000000 0.000000
v 0.109113 0.528173 0.000000
v 0.094495 0.000000 0.054557
v 0.094495 0.528173 0.054557
v 0.054557 0.000000 0.094495
v 0.054557 0.528173 0.094495
v 0.000000 0.000000 0.109113
v 0.000000 0.528173 0.109113
v -0.054557 0.000000 0.094495
v -0.054557 0.528173 0.094495
v -0.094495 0.000000 0.054557
v -0.094495 0.528173 0.054557
v -0.109113 0.000000 0.000000
v -0.109113 0.528173 0.000000
v -0.094495 0.000000 -0.054557
v -0.094495 0.528173 -0.054557
v -0.054557 0.000000 -0.094495
v -0.054557 0.528173 -0.094495
v 0.000000 0.508974 -0.245559
v 0.122779 0.508974 -0.212660
v 0.212660 0.508974 -0.122779
v 0.245559 0.508974 0.000000
v 0.212660 0.508974 0.122779
v 0.122779 0.508974 0.212660
v 0.000000 0.508974 0.245559
v -0.122779 0.508974 0.212660
v -0.212660 0.508974 0.122779
v -0.245559 0.508974 0.000000
v -0.212660 0.508974 -0.122779
v -0.122779 0.508974 -0.212660
v 0.000000 0.000000 -0.109113
v 0.054557 0.000000 -0.094495
v 0.054557 0.528173 -0.094495
v 0.000000 0.528173 -0.109113
v 0.094495 0.000000 -0.054557
v 0.094495 0.528173 -0.054557
v 0.109113 0.000000 0.000000
v 0.109113 0.528173 0.000000
v 0.094495 0.000000 0.054557
v 0.094495 0.528173 0.054557
v 0.054557 0.000000 0.094495
v 0.054557 0.528173 0.094495
v 0.000000 0.000000 0.109113
v 0.000000 0.528173 0.109113
v -0.054557 0.000000 0.094495
v -0.054557 0.528173 0.094495
v -0.094495 0.000000 0.054557
v -0.094495 0.528173 0.054557
v -0.109113 0.000000 0.000000
v -0.109113 0.528173 0.000000
v -0.094495 0.000000 -0.054557
v -0.094495 0.528173 -0.054557
v -0.054557 0.000000 -0.094495
v -0.054557 0.528173 -0.094495
vn -0.0000 0.4472 -0.8944
vn -0.0000 1.0000 -0.0000
vn 0.4472 0.4472 -0.7746
vn 0.7746 0.4472 -0.4472
vn 0.8944 0.4472 -0.0000
vn 0.7746 0.4472 0.4472
vn 0.4472 0.4472 0.7746
vn -0.0000 0.4472 0.8944
vn -0.4472 0.4472 0.7746
vn -0.7746 0.4472 0.4472
vn -0.8944 0.4472 -0.0000
vn -0.7746 0.4472 -0.4472
vn -0.0000 -1.0000 -0.0000
vn -0.4472 0.4472 -0.7746
vn -0.0000 -0.0000 -1.0000
vn 0.5000 -0.0000 -0.8660
vn 0.8660 -0.0000 -0.5000
vn 1.0000 -0.0000 -0.0000
vn 0.8660 -0.0000 0.5000
vn 0.5000 -0.0000 0.8660
vn -0.0000 -0.0000 1.0000
vn -0.5000 -0.0000 0.8660
vn -0.8660 -0.0000 0.5000
vn -1.0000 -0.0000 -0.0000
vn -0.8660 -0.0000 -0.5000
vn -0.5000 -0.0000 -0.8660
vt 0.750000 0.490000
vt 0.870000 0.457846
vt 0.957846 0.370000
vt 0.990000 0.250000
vt 0.957846 0.130000
vt 0.870000 0.042154
vt 0.750000 0.010000
vt 0.630000 0.042154
vt 0.542154 0.130000
vt 0.510000 0.250000
vt 0.542154 0.370000
vt 0.130000 0.457846
vt 0.250000 0.250000
vt 0.750000 0.490000
vt 0.250000 0.490000
vt 0.870000 0.457846
vt 0.370000 0.457846
vt 0.957846 0.370000
vt 0.457846 0.370000
vt 0.990000 0.250000
vt 0.490000 0.250000
vt 0.957846 0.130000
vt 0.457846 0.130000
vt 0.870000 0.042154
vt 0.370000 0.042154
vt 0.750000 0.010000
vt 0.250000 0.010000
vt 0.630000 0.042154
vt 0.130000 0.042154
vt 0.542154 0.130000
vt 0.042154 0.130000
vt 0.510000 0.250000
vt 0.010000 0.250000
vt 0.542154 0.370000
vt 0.042154 0.370000
vt 0.630000 0.457846
vt 0.083333 1.000000
vt 0.250000 0.490000
vt 0.370000 0.457846
vt 0.457846 0.370000
vt 0.490000 0.250000
vt 0.457846 0.130000
vt 0.370000 0.042154
vt 0.250000 0.010000
vt 0.130000 0.042154
vt 0.042154 0.130000
vt 0.010000 0.250000
vt 0.042154 0.370000
vt 0.630000 0.457846
vt 1.000000 0.500000
vt 0.000000 0.500000
vt 0.916667 0.500000
vt 0.916667 1.000000
vt 1.000000 1.000000
vt 0.000000 1.000000
vt 0.833333 0.500000
vt 0.833333 1.000000
vt 0.750000 0.500000
vt 0.750000 1.000000
vt 0.666667 0.500000
vt 0.666667 1.000000
vt 0.583333 0.500000
vt 0.583333 1.000000
vt 0.500000 0.500000
vt 0.500000 1.000000
vt 0.416667 0.500000
vt 0.416667 1.000000
vt 0.333333 0.500000
vt 0.333333 1.000000
vt 0.250000 0.500000
vt 0.250000 1.000000
vt 0.166667 0.500000
vt 0.166667 1.000000
vt 0.083333 0.500000
vt 0.130000 0.457846
s 1
usemtl Material.001
f 38/38/1 13/13/2 39/39/3
f 39/39/3 13/13/2 40/40/4
f 40/40/4 13/13/2 41/41/5
f 41/41/5 13/13/2 42/42/6
f 42/42/6 13/13/2 43/43/7
f 43/43/7 13/13/2 44/44/8
f 44/44/8 13/13/2 45/45/9
f 45/45/9 13/13/2 46/46/10
f 46/46/10 13/13/2 47/47/11
f 47/47/11 13/13/2 48/48/12
f 1/1/13 2/2/13 3/3/13 4/4/13 5/5/13 6/6/13 7/7/13 8/8/13 9/9/13 10/10/13 11/11/13 49/49/13
f 48/48/12 13/13/2 12/12/14
f 12/12/14 13/13/2 38/38/1
f 50/50/15 53/54/15 52/53/16 51/52/16
f 51/52/16 52/53/16 55/57/17 54/56/17
f 54/56/17 55/57/17 57/59/18 56/58/18
f 56/58/18 57/59/18 59/61/19 58/60/19
f 58/60/19 59/61/19 61/63/20 60/62/20
f 60/62/20 61/63/20 63/65/21 62/64/21
f 62/64/21 63/65/21 65/67/22 64/66/22
f 64/66/22 65/67/22 67/69/23 66/68/23
f 66/68/23 67/69/23 69/71/24 68/70/24
f 68/70/24 69/71/24 71/73/25 70/72/25
f 17/17/2 15/15/2 73/75/2 35/35/2 33/33/2 31/31/2 29/29/2 27/27/2 25/25/2 23/23/2 21/21/2 19/19/2
f 70/72/25 71/73/25 37/37/26 72/74/26
f 72/74/26 37/37/26 53/55/15 50/51/15
f 14/14/13 16/16/13 18/18/13 20/20/13 22/22/13 24/24/13 26/26/13 28/28/13 30/30/13 32/32/13 34/34/13 36/36/13
