# Blender 3.3.0
# www.blender.org
mtllib axis_Arrows.mtl
o Cone
v 0.085064 0.803645 0.049112
v 0.049112 0.803645 0.085064
v -0.000000 0.803645 0.098224
v -0.049112 0.803645 0.085064
v -0.085064 0.803645 0.049112
v -0.098223 0.803645 -0.000000
v -0.085064 0.803645 -0.049112
v -0.049112 0.803645 -0.085064
v 0.000000 0.803645 -0.098223
v 0.049112 0.803645 -0.085064
v 0.085064 0.803645 -0.049111
v 0.098223 0.803645 0.000000
v -0.000000 1.000092 0.000000
v 0.037798 0.808173 0.021823
v 0.021823 0.808173 0.037798
v 0.000000 0.808173 0.043646
v -0.021823 0.808173 0.037798
v -0.037798 0.808173 0.021823
v -0.043645 0.808173 0.000000
v -0.037798 0.808173 -0.021822
v -0.021823 0.808173 -0.037798
v 0.000000 0.808173 -0.043645
v 0.021823 0.808173 -0.037798
v 0.037798 0.808173 -0.021822
v 0.043645 0.808173 0.000000
v 0.085064 0.803645 0.049112
v 0.049112 0.803645 0.085064
v -0.000000 0.803645 0.098224
v -0.049112 0.803645 0.085064
v -0.085064 0.803645 0.049112
v -0.098223 0.803645 -0.000000
v -0.085064 0.803645 -0.049112
v -0.049112 0.803645 -0.085064
v 0.000000 0.803645 -0.098223
v 0.049112 0.803645 -0.085064
v 0.085064 0.803645 -0.049111
v 0.098223 0.803645 0.000000
v 0.037798 0.021823 0.021823
v 0.021823 0.037798 0.037798
v 0.021823 0.808173 0.037798
v 0.037798 0.808173 0.021823
v 0.000000 0.043645 0.043645
v 0.000000 0.808173 0.043646
v -0.021823 0.808173 0.037798
v -0.037798 0.808173 0.021823
v -0.043645 0.808173 0.000000
v -0.037798 0.808173 -0.021822
v -0.021823 0.021823 -0.037798
v -0.021823 0.808173 -0.037798
v 0.000000 0.000000 -0.043645
v 0.000000 0.808173 -0.043645
v 0.021823 0.808173 -0.037798
v 0.037798 0.808173 -0.021822
v 0.043645 0.808173 0.000000
v -0.803645 0.000000 0.098224
v -0.803645 -0.049111 0.085064
v -0.803645 -0.085064 0.049112
v -0.803645 -0.098223 -0.000000
v -0.803645 -0.085064 -0.049112
v -0.803645 -0.049111 -0.085064
v -0.803645 0.000000 -0.098224
v -0.803645 0.049112 -0.085064
v -0.803645 0.085064 -0.049112
v -0.803645 0.098224 -0.000000
v -0.803645 0.085064 0.049112
v -0.803645 0.049112 0.085064
v -1.000092 0.000000 -0.000000
v -0.808173 0.000000 0.043645
v -0.808173 -0.021823 0.037798
v -0.808173 -0.037798 0.021823
v -0.808173 -0.043645 0.000000
v -0.808173 -0.037798 -0.021823
v -0.808173 -0.021823 -0.037798
v -0.808173 0.000000 -0.043645
v -0.808173 0.021823 -0.037798
v -0.808173 0.037798 -0.021823
v -0.808173 0.043645 0.000000
v -0.808173 0.037798 0.021823
v -0.808173 0.021823 0.037798
v -0.803645 0.000000 0.098224
v -0.803645 -0.049111 0.085064
v -0.803645 -0.085064 0.049112
v -0.803645 -0.098223 -0.000000
v -0.803645 -0.085064 -0.049112
v -0.803645 -0.049111 -0.085064
v -0.803645 0.000000 -0.098224
v -0.803645 0.049112 -0.085064
v -0.803645 0.085064 -0.049112
v -0.803645 0.098224 -0.000000
v -0.803645 0.085064 0.049112
v -0.803645 0.049112 0.085064
v -0.043645 -0.000000 0.043645
v -0.037798 -0.021823 0.037798
v -0.808173 -0.021823 0.037798
v -0.808173 0.000000 0.043645
v -0.808173 -0.037798 0.021823
v -0.808173 -0.043645 0.000000
v -0.000000 -0.037798 -0.021823
v -0.808173 -0.037798 -0.021823
v -0.000000 -0.021823 -0.037798
v -0.808173 -0.021823 -0.037798
v -0.808173 0.000000 -0.043645
v -0.808173 0.021823 -0.037798
v -0.037798 0.037798 -0.021823
v -0.808173 0.037798 -0.021823
v -0.043645 0.043645 -0.000000
v -0.808173 0.043645 0.000000
v -0.037798 0.037798 0.021823
v -0.808173 0.037798 0.021823
v -0.037798 0.021823 0.037798
v -0.808173 0.021823 0.037798
v 0.000000 -0.098224 0.803645
v -0.049112 -0.085064 0.803645
v -0.085064 -0.049112 0.803645
v -0.098224 -0.000000 0.803645
v -0.085064 0.049112 0.803645
v -0.049112 0.085064 0.803645
v 0.000000 0.098224 0.803645
v 0.049112 0.085064 0.803645
v 0.085064 0.049112 0.803645
v 0.098224 -0.000000 0.803645
v 0.085064 -0.049112 0.803645
v 0.049112 -0.085064 0.803645
v 0.000000 -0.000000 1.000092
v 0.000000 -0.043645 0.808173
v -0.021823 -0.037798 0.808173
v -0.037798 -0.021823 0.808173
v -0.043645 -0.000000 0.808173
v -0.037798 0.021823 0.808173
v -0.021823 0.037798 0.808173
v 0.000000 0.043645 0.808173
v 0.021823 0.037798 0.808173
v 0.037798 0.021823 0.808173
v 0.043645 -0.000000 0.808173
v 0.037798 -0.021823 0.808173
v 0.021823 -0.037798 0.808173
v 0.000000 -0.098224 0.803645
v -0.049112 -0.085064 0.803645
v -0.085064 -0.049112 0.803645
v -0.098224 -0.000000 0.803645
v -0.085064 0.049112 0.803645
v -0.049112 0.085064 0.803645
v 0.000000 0.098224 0.803645
v 0.049112 0.085064 0.803645
v 0.085064 0.049112 0.803645
v 0.098224 -0.000000 0.803645
v 0.085064 -0.049112 0.803645
v 0.049112 -0.085064 0.803645
v 0.000000 -0.043645 -0.000000
v -0.021823 -0.037798 0.021823
v -0.021823 -0.037798 0.808173
v 0.000000 -0.043645 0.808173
v -0.037798 -0.021823 0.808173
v -0.043645 -0.000000 0.808173
v -0.037798 0.021823 0.808173
v -0.021823 0.037798 0.037798
v -0.021823 0.037798 0.808173
v 0.000000 0.043645 0.808173
v 0.021823 0.037798 0.808173
v 0.037798 0.021823 0.808173
v 0.043645 0.000000 0.000000
v 0.043645 -0.000000 0.808173
v 0.037798 -0.021823 -0.000000
v 0.037798 -0.021823 0.808173
v 0.021823 -0.037798 -0.000000
v 0.021823 -0.037798 0.808173
v 0.021823 0.000000 -0.037798
v 0.037798 0.000000 -0.021823
v 0.023505 -0.026510 -0.023505
v 0.021823 0.037798 0.037798
v 0.000000 0.043645 0.043645
v -0.043645 -0.000000 0.043645
v -0.037798 -0.021823 0.037798
v -0.037798 0.037798 0.021823
v -0.037798 0.037798 0.021823
v -0.037798 0.021823 0.037798
v -0.037798 0.021823 0.037798
v -0.037798 0.037798 -0.021823
v -0.043645 0.043645 -0.000000
v -0.021823 0.037798 0.037798
v -0.021823 0.037798 0.037798
vn 0.7746 0.4472 0.4472
vn -0.0000 1.0000 -0.0000
vn 0.4472 0.4472 0.7746
vn -0.0000 0.4472 0.8944
vn -0.4472 0.4472 0.7746
vn -0.7746 0.4472 0.4472
vn -0.8944 0.4472 -0.0000
vn -0.7746 0.4472 -0.4472
vn -0.4472 0.4472 -0.7746
vn -0.0000 0.4472 -0.8944
vn 0.4472 0.4472 -0.7746
vn 0.7746 0.4472 -0.4472
vn -0.0000 -1.0000 -0.0000
vn 0.8944 0.4472 -0.0000
vn 0.9555 0.2085 0.2085
vn 0.8660 -0.0000 0.5000
vn 0.5000 -0.0000 0.8660
vn 0.5563 -0.0000 0.8310
vn -0.0000 -0.0000 1.0000
vn -0.5000 -0.0000 0.8660
vn -0.5202 -0.0000 0.8540
vn -0.8660 -0.0000 0.5000
vn -0.8540 -0.0000 0.5202
vn -1.0000 -0.0000 -0.0000
vn -0.8660 -0.0000 -0.5000
vn -0.8310 -0.0000 -0.5563
vn -0.5000 -0.0000 -0.8660
vn -0.2085 0.2085 -0.9555
vn -0.0000 -0.0000 -1.0000
vn 0.0952 -0.0952 -0.9909
vn 0.9909 -0.0952 -0.0952
vn 1.0000 -0.0000 -0.0000
vn -0.4472 -0.0000 0.8944
vn -0.4472 -0.4472 0.7746
vn -0.4472 -0.7746 0.4472
vn -0.4472 -0.8944 -0.0000
vn -0.4472 -0.7746 -0.4472
vn -0.4472 -0.4472 -0.7746
vn -0.4472 -0.0000 -0.8944
vn -0.4472 0.7746 -0.4472
vn -0.4472 0.8944 -0.0000
vn -0.4472 0.7746 0.4472
vn -0.0000 -0.5000 0.8660
vn -0.0000 -0.5563 0.8310
vn -0.0000 -0.8660 0.5000
vn -0.2085 -0.9555 0.2085
vn 0.0952 -0.9909 -0.0952
vn -0.0000 -0.8660 -0.5000
vn 0.1531 -0.8552 -0.4952
vn -0.0000 -0.5000 -0.8660
vn 0.1615 -0.4945 -0.8540
vn -0.0000 0.5000 -0.8660
vn -0.0000 0.8660 -0.5000
vn -0.0000 0.8310 -0.5563
vn -0.0000 0.8660 0.5000
vn -0.0000 0.8540 0.5202
vn -0.0000 0.5000 0.8660
vn -0.0000 0.5202 0.8540
vn -0.0000 -0.8944 0.4472
vn -0.7746 -0.4472 0.4472
vn -0.8944 -0.0000 0.4472
vn -0.0000 0.8944 0.4472
vn 0.4472 0.7746 0.4472
vn 0.8944 -0.0000 0.4472
vn 0.7746 -0.4472 0.4472
vn 0.4472 -0.7746 0.4472
vn -0.5000 -0.8660 -0.0000
vn -0.8660 -0.5000 -0.0000
vn -0.8310 -0.5563 -0.0000
vn -0.8660 0.5000 -0.0000
vn -0.8540 0.5202 -0.0000
vn -0.5000 0.8660 -0.0000
vn -0.5202 0.8540 -0.0000
vn 0.5000 0.8660 -0.0000
vn 0.5563 0.8310 -0.0000
vn 0.8660 0.5000 -0.0000
vn 0.8660 -0.5000 -0.0000
vn 0.8540 -0.4945 -0.1615
vn 0.5000 -0.8660 -0.0000
vn 0.4952 -0.8552 -0.1531
vn 0.8505 -0.1671 -0.4987
vn 0.8660 -0.0000 -0.5000
vn 0.4987 -0.1671 -0.8505
vn 0.5000 -0.0000 -0.8660
vn 0.5643 -0.6027 -0.5643
vn -0.5773 0.5774 0.5774
vt 0.750000 0.490000
vt 0.870000 0.457846
vt 0.957846 0.370000
vt 0.990000 0.250000
vt 0.957846 0.130000
vt 0.870000 0.042154
vt 0.750000 0.010000
vt 0.630000 0.042154
vt 0.542154 0.130000
vt 0.510000 0.250000
vt 0.542154 0.370000
vt 0.130000 0.457846
vt 0.250000 0.250000
vt 0.250000 0.490000
vt 0.370000 0.457846
vt 0.457846 0.370000
vt 0.490000 0.250000
vt 0.457846 0.130000
vt 0.370000 0.042154
vt 0.250000 0.010000
vt 0.130000 0.042154
vt 0.042154 0.130000
vt 0.010000 0.250000
vt 0.042154 0.370000
vt 0.083333 1.000000
vt 0.250000 0.490000
vt 0.370000 0.457846
vt 0.457846 0.370000
vt 0.490000 0.250000
vt 0.457846 0.130000
vt 0.370000 0.042154
vt 0.250000 0.010000
vt 0.130000 0.042154
vt 0.042154 0.130000
vt 0.010000 0.250000
vt 0.042154 0.370000
vt 0.630000 0.457846
vt 1.000000 0.500000
vt 0.000000 0.500000
vt 0.333333 0.500000
vt 0.416667 0.500000
vt 0.916667 1.000000
vt 1.000000 1.000000
vt 0.000000 1.000000
vt 0.500000 0.500000
vt 0.833333 1.000000
vt 0.750000 1.000000
vt 0.666667 1.000000
vt 0.583333 1.000000
vt 0.500000 1.000000
vt 0.416667 0.500000
vt 0.416667 1.000000
vt 0.333333 0.500000
vt 0.500000 0.500000
vt 0.333333 1.000000
vt 0.250000 1.000000
vt 0.166667 1.000000
vt 0.130000 0.457846
vt 0.750000 0.490000
vt 0.870000 0.457846
vt 0.957846 0.370000
vt 0.990000 0.250000
vt 0.957846 0.130000
vt 0.870000 0.042154
vt 0.750000 0.010000
vt 0.630000 0.042154
vt 0.542154 0.130000
vt 0.510000 0.250000
vt 0.542154 0.370000
vt 0.130000 0.457846
vt 0.250000 0.250000
vt 0.250000 0.490000
vt 0.370000 0.457846
vt 0.457846 0.370000
vt 0.490000 0.250000
vt 0.457846 0.130000
vt 0.370000 0.042154
vt 0.250000 0.010000
vt 0.130000 0.042154
vt 0.042154 0.130000
vt 0.010000 0.250000
vt 0.042154 0.370000
vt 0.083333 1.000000
vt 0.250000 0.490000
vt 0.370000 0.457846
vt 0.457846 0.370000
vt 0.490000 0.250000
vt 0.457846 0.130000
vt 0.370000 0.042154
vt 0.250000 0.010000
vt 0.130000 0.042154
vt 0.042154 0.130000
vt 0.010000 0.250000
vt 0.042154 0.370000
vt 0.630000 0.457846
vt 0.750000 0.500000
vt 0.833333 0.500000
vt 0.916667 1.000000
vt 1.000000 1.000000
vt 0.000000 1.000000
vt 0.833333 1.000000
vt 0.750000 1.000000
vt 0.666667 0.500000
vt 0.666667 1.000000
vt 0.583333 0.500000
vt 0.583333 1.000000
vt 0.500000 1.000000
vt 0.416667 1.000000
vt 0.500000 0.500000
vt 0.333333 1.000000
vt 0.250000 0.500000
vt 0.250000 1.000000
vt 0.166667 0.500000
vt 0.166667 1.000000
vt 0.083333 0.500000
vt 0.130000 0.457846
vt 0.750000 0.490000
vt 0.870000 0.457846
vt 0.957846 0.370000
vt 0.990000 0.250000
vt 0.957846 0.130000
vt 0.870000 0.042154
vt 0.750000 0.010000
vt 0.630000 0.042154
vt 0.542154 0.130000
vt 0.510000 0.250000
vt 0.542154 0.370000
vt 0.130000 0.457846
vt 0.250000 0.250000
vt 0.250000 0.490000
vt 0.370000 0.457846
vt 0.457846 0.370000
vt 0.490000 0.250000
vt 0.457846 0.130000
vt 0.370000 0.042154
vt 0.250000 0.010000
vt 0.130000 0.042154
vt 0.042154 0.130000
vt 0.010000 0.250000
vt 0.042154 0.370000
vt 0.083333 1.000000
vt 0.250000 0.490000
vt 0.370000 0.457846
vt 0.457846 0.370000
vt 0.490000 0.250000
vt 0.457846 0.130000
vt 0.370000 0.042154
vt 0.250000 0.010000
vt 0.130000 0.042154
vt 0.042154 0.130000
vt 0.010000 0.250000
vt 0.042154 0.370000
vt 0.630000 0.457846
vt 1.000000 0.500000
vt 0.000000 0.500000
vt 0.750000 0.500000
vt 0.833333 0.500000
vt 0.916667 0.500000
vt 0.916667 1.000000
vt 1.000000 1.000000
vt 0.000000 1.000000
vt 0.833333 1.000000
vt 0.750000 1.000000
vt 0.666667 1.000000
vt 0.750000 0.500000
vt 0.583333 1.000000
vt 0.500000 1.000000
vt 0.416667 1.000000
vt 0.333333 1.000000
vt 0.250000 0.500000
vt 0.083333 0.500000
vt 0.250000 1.000000
vt 0.166667 0.500000
vt 0.166667 1.000000
vt 0.083333 0.500000
vt 0.130000 0.457846
vt 0.250000 0.525619
vt 0.166667 0.525619
vt 0.375000 0.500000
vt 0.916667 0.500000
vt 0.833333 0.500000
vt 1.000000 0.500000
vt 0.000000 0.500000
vt 0.916667 0.500000
vt 0.166667 0.500000
vt 0.666667 0.500000
vt 0.083333 0.500000
vt 0.666667 0.500000
vt 0.333333 0.500000
vt 0.583333 0.500000
vt 0.583333 0.500000
vt 0.750000 0.500000
s 1
usemtl green
f 26/26/1 13/13/2 27/27/3
f 27/27/3 13/13/2 28/28/4
f 28/28/4 13/13/2 29/29/5
f 29/29/5 13/13/2 30/30/6
f 30/30/6 13/13/2 31/31/7
f 31/31/7 13/13/2 32/32/8
f 32/32/8 13/13/2 33/33/9
f 33/33/9 13/13/2 34/34/10
f 34/34/10 13/13/2 35/35/11
f 35/35/11 13/13/2 36/36/12
f 1/1/13 2/2/13 3/3/13 4/4/13 5/5/13 6/6/13 7/7/13 8/8/13 9/9/13 10/10/13 11/11/13 37/37/13
f 36/36/12 13/13/2 12/12/14
f 12/12/14 13/13/2 26/26/1
f 38/38/15 41/43/16 40/42/17 170/180/18
f 170/180/18 40/42/17 43/46/19 171/181/19
f 171/181/19 43/46/19 44/47/20 181/192/21
f 181/192/21 44/47/20 45/48/22 175/186/23
f 175/186/23 45/48/22 46/49/24 179/190/24
f 179/190/24 46/49/24 47/50/25 104/109/26
f 104/109/26 47/50/25 49/52/27 48/51/28
f 48/51/28 49/52/27 51/55/29 50/53/30
f 15/15/2 14/14/2 54/58/2 24/24/2 23/23/2 22/22/2 21/21/2 20/20/2 19/19/2 18/18/2 17/17/2 16/16/2
f 161/171/31 25/25/32 41/44/16 38/39/15
f 161/171/31 168/178/81 53/57/82 25/25/32
f 167/177/83 50/53/30 51/55/29 52/56/84
f 168/178/81 167/177/83 52/56/84 53/57/82
f 50/54/30 167/177/83 100/105/51
f 163/173/78 168/178/81 161/171/31
f 165/175/80 149/156/47 98/103/49
f 169/179/85 165/175/80 98/103/49
f 168/178/81 163/173/78 169/179/85
f 98/103/49 100/105/51 169/179/85
f 169/179/85 100/105/51 167/177/83
f 169/179/85 163/173/78 165/175/80
f 156/165/86 108/113/86 110/115/86
f 169/179/85 167/177/83 168/178/81
usemtl red
f 80/84/33 67/71/24 81/85/34
f 81/85/34 67/71/24 82/86/35
f 82/86/35 67/71/24 83/87/36
f 83/87/36 67/71/24 84/88/37
f 84/88/37 67/71/24 85/89/38
f 85/89/38 67/71/24 86/90/39
f 86/90/39 67/71/24 87/91/9
f 87/91/9 67/71/24 88/92/40
f 88/92/40 67/71/24 89/93/41
f 89/93/41 67/71/24 90/94/42
f 55/59/32 56/60/32 57/61/32 58/62/32 59/63/32 60/64/32 61/65/32 62/66/32 63/67/32 64/68/32 65/69/32 91/95/32
f 90/94/42 67/71/24 66/70/5
f 66/70/5 67/71/24 80/84/33
f 172/182/19 95/99/19 94/98/43 173/184/44
f 173/184/44 94/98/43 96/101/45 150/157/46
f 150/157/46 96/101/45 97/102/13 149/156/47
f 149/156/47 97/102/13 99/104/48 98/103/49
f 98/103/49 99/104/48 101/106/50 100/105/51
f 100/105/51 101/106/50 102/107/29 50/54/30
f 50/54/30 102/107/29 103/108/52 48/51/28
f 48/51/28 103/108/52 105/110/53 178/189/54
f 178/189/54 105/110/53 107/112/2 106/111/2
f 106/111/2 107/112/2 109/114/55 174/185/56
f 69/73/24 68/72/24 111/116/24 78/82/24 77/81/24 76/80/24 75/79/24 74/78/24 73/77/24 72/76/24 71/75/24 70/74/24
f 174/185/56 109/114/55 79/83/57 176/187/58
f 176/187/58 79/83/57 95/100/19 172/183/19
usemtl blue
f 137/142/59 124/129/19 138/143/35
f 138/143/35 124/129/19 139/144/60
f 139/144/60 124/129/19 140/145/61
f 140/145/61 124/129/19 141/146/6
f 141/146/6 124/129/19 142/147/42
f 142/147/42 124/129/19 143/148/62
f 143/148/62 124/129/19 144/149/63
f 144/149/63 124/129/19 145/150/1
f 145/150/1 124/129/19 146/151/64
f 146/151/64 124/129/19 147/152/65
f 112/117/29 113/118/29 114/119/29 115/120/29 116/121/29 117/122/29 118/123/29 119/124/29 120/125/29 121/126/29 122/127/29 148/153/29
f 147/152/65 124/129/19 123/128/66
f 123/128/66 124/129/19 137/142/59
f 149/154/47 152/160/13 151/159/67 150/158/46
f 150/158/46 151/159/67 153/162/68 93/97/69
f 93/97/69 153/162/68 154/163/24 92/96/24
f 92/96/24 154/163/24 155/164/70 177/188/71
f 177/188/71 155/164/70 157/166/72 180/191/73
f 180/191/73 157/166/72 158/167/2 42/45/2
f 42/45/2 158/167/2 159/168/74 39/41/75
f 39/41/75 159/168/74 160/169/76 38/40/15
f 38/40/15 160/169/76 162/172/32 161/170/31
f 161/170/31 162/172/32 164/174/77 163/173/78
f 126/131/19 125/130/19 166/176/19 135/140/19 134/139/19 133/138/19 132/137/19 131/136/19 130/135/19 129/134/19 128/133/19 127/132/19
f 163/173/78 164/174/77 136/141/79 165/175/80
f 165/175/80 136/141/79 152/161/13 149/155/47
