# Blender 3.3.0
# www.blender.org
mtllib SCVSML.mtl
o Object_0
v -0.433297 -0.054275 -0.204926
v -0.433297 -0.054275 0.296082
v -0.433297 0.036724 -0.204926
v -0.433297 0.036724 0.296082
v 0.432700 -0.054275 -0.204926
v 0.432700 -0.054275 0.296082
v 0.432700 0.036724 -0.204926
v 0.432700 0.036724 0.296082
v -0.046285 -0.054275 -0.204926
v 0.045714 -0.054275 0.706055
v -0.046285 -0.054275 0.706055
v 0.045714 0.013725 0.706055
v -0.046285 0.013725 0.706055
v 0.568717 -0.054275 -0.204926
v 0.568717 0.036724 -0.204926
v 0.523734 -0.054275 0.296082
v 0.523734 0.036724 0.296082
v 0.432700 0.036724 -0.387939
v 0.568717 0.036724 -0.387939
v 0.568717 -0.054275 -0.387939
v 0.432700 -0.054275 -0.387939
v 0.500724 0.401711 -0.204925
v 0.500724 0.401711 -0.387939
v 0.158713 0.082726 0.068069
v -0.091287 0.241722 0.068069
v 0.090712 0.241722 0.068069
v 0.500724 0.401711 -0.068932
v 0.500724 -0.418266 -0.387940
v 0.500724 -0.418266 -0.204926
v -0.000286 0.036724 0.706055
v -0.000286 -0.510277 0.341064
v 0.500724 -0.418266 -0.068932
v -0.159280 0.082726 0.296082
v 0.045714 -0.054275 -0.204926
v 0.568717 -0.054275 0.171066
v 0.568717 0.036724 0.171066
v 0.796744 0.036724 -0.022934
v 0.796744 -0.031273 -0.022934
v 0.796744 0.036724 -0.204926
v 0.796744 -0.031273 -0.204926
v 0.842704 -0.054275 -0.204926
v 0.842704 0.059727 -0.204926
v 0.842704 -0.054275 -0.022934
v 0.842704 0.059727 -0.022934
v 0.956717 -0.054275 -0.204926
v 0.956717 0.059727 -0.204926
v 0.956717 -0.054275 -0.022934
v 0.956717 0.059727 -0.022934
v 0.933707 0.036724 0.022072
v 0.865714 0.036724 0.022072
v 0.933707 -0.031273 0.022072
v 0.865714 -0.031273 0.022072
v 0.865714 -0.031273 0.159073
v 0.933707 -0.031273 0.159073
v 0.865714 0.036724 0.159073
v 0.933707 0.036724 0.159073
v -0.524301 -0.054275 0.296082
v -0.524301 0.036724 0.296082
v -0.569284 -0.054275 -0.204926
v -0.569284 0.036724 -0.204926
v -0.569284 0.036724 -0.387939
v -0.433297 0.036724 -0.387939
v -0.569284 -0.054275 -0.387939
v -0.433297 -0.054275 -0.387939
v -0.137292 -0.054275 0.068069
v 0.136710 -0.054275 0.432068
v -0.496286 0.401711 -0.387939
v -0.496286 0.401711 -0.204925
v -0.137292 -0.054275 0.432068
v -0.496286 0.401711 -0.068932
v -0.159280 0.082726 0.068069
v -0.000286 -0.510277 0.524048
v -0.496286 -0.418266 -0.387940
v -0.496286 -0.418266 -0.204926
v -0.496286 -0.418266 -0.068932
v 0.136710 -0.054275 0.068069
v -0.569284 -0.054275 0.171066
v -0.569284 0.036724 0.171066
v -0.797311 0.036724 -0.022934
v -0.797311 -0.031273 -0.022934
v -0.797311 -0.031273 -0.204926
v -0.797311 0.036724 -0.204926
v -0.843271 0.059727 -0.204926
v -0.843271 -0.054275 -0.204926
v -0.843271 0.059727 -0.022934
v -0.843271 -0.054275 -0.022934
v -0.957284 0.059727 -0.204926
v -0.957284 -0.054275 -0.204926
v -0.957284 0.059727 -0.022934
v -0.957284 -0.054275 -0.022934
v -0.934274 -0.031273 0.022072
v -0.866281 -0.031273 0.022072
v -0.934274 0.036724 0.022072
v -0.866281 0.036724 0.022072
v -0.866281 0.036724 0.159073
v -0.934274 0.036724 0.159073
v -0.866281 -0.031273 0.159073
v -0.934274 -0.031273 0.159073
v 0.090712 0.036724 -0.204926
v -0.091287 0.036724 -0.204926
v 0.045714 0.127724 -0.204926
v 0.090712 0.241722 0.296082
v -0.046285 0.127724 -0.204926
v -0.091287 0.241722 0.296082
v 0.158713 0.082726 0.296082
vn -0.0000 -0.0000 -1.0000
vn -0.9409 -0.0000 0.3386
vn -0.8704 0.3800 0.3132
vn -0.9805 -0.1966 -0.0000
vn 0.8739 -0.3706 0.3145
vn 0.9409 -0.0000 0.3386
vn 0.9830 -0.1836 -0.0000
vn -0.9831 0.1832 -0.0000
vn 0.8743 0.3697 0.3146
vn 1.0000 -0.0000 -0.0000
vn -0.9806 0.1961 -0.0000
vn 0.9831 0.1831 -0.0000
vn -0.0000 0.7071 0.7071
vn -1.0000 -0.0000 -0.0000
vn 0.9854 -0.1705 -0.0000
vn -0.0000 -0.7081 0.7061
vn 0.9854 0.1701 -0.0000
vn -0.9830 -0.1837 -0.0000
vn -0.8700 -0.3809 0.3130
vn -0.0000 -0.0000 1.0000
vn 0.1656 0.9862 -0.0000
vn -0.0000 -1.0000 -0.0000
vn -0.1656 0.9862 -0.0000
vn -0.0000 0.9861 -0.1662
vn 0.4313 0.8627 0.2641
vn -0.7272 -0.0000 0.6865
vn -0.1620 0.9648 0.2070
vn 0.7272 -0.0000 0.6864
vn -0.4313 0.8627 0.2641
vn 0.1620 0.9648 0.2070
vn -0.0000 0.8904 0.4551
vn -0.0000 1.0000 -0.0000
vn -0.0000 -0.8904 0.4551
vn -0.8904 -0.0000 0.4552
vn -0.4476 -0.8942 -0.0000
vn 0.8904 -0.0000 0.4552
vn -0.4476 0.8942 -0.0000
vn 0.4476 -0.8942 -0.0000
vn 0.4476 0.8942 -0.0000
vn -0.9577 -0.2877 -0.0000
vn -0.1004 -0.9950 -0.0000
vn 0.9577 -0.2877 -0.0000
vn -0.9265 -0.2163 0.3078
vn 0.9266 -0.2163 0.3077
vn 0.8572 -0.4286 -0.2857
vn -0.6480 -0.0000 0.7616
vn 0.1004 -0.9950 -0.0000
vn -0.0000 -0.7675 -0.6410
vn -0.8571 -0.4286 -0.2857
vn 0.6480 -0.0000 0.7616
vn -0.0000 -0.3707 0.9288
vn -0.8706 0.3935 -0.2955
vn -0.9195 0.3932 -0.0000
vn 0.8705 0.3935 -0.2955
vn -0.0000 0.9228 -0.3853
vn 0.9194 0.3932 -0.0000
vn -0.0000 0.8944 0.4472
vn -0.8535 0.3650 0.3719
vn 0.8535 0.3650 0.3720
vt 0.708333 0.218750
vt 0.968750 1.000000
vt 0.937500 1.000000
vt 0.020833 0.218750
vt 0.000000 0.218750
vt 0.000000 0.812500
vt 0.968750 0.437500
vt 0.708333 0.031250
vt 0.708333 0.218750
vt 0.968750 1.000000
vt 0.937500 0.968750
vt 0.000000 1.000000
vt 0.020833 0.218750
vt 0.968750 0.437500
vt 0.708333 0.218750
vt 0.708333 0.031250
vt 0.937500 1.000000
vt 0.968750 1.000000
vt 0.020833 0.218750
vt 0.000000 0.812500
vt 0.968750 0.437500
vt 0.708333 0.218750
vt 0.708333 0.187500
vt 0.937500 0.968750
vt 0.968750 1.000000
vt 0.020833 0.218750
vt 0.000000 0.218750
vt 0.000000 1.000000
vt 0.968750 0.437500
vt 0.093750 1.000000
vt 0.984375 1.000000
vt 0.687500 0.062500
vt 0.562500 0.015625
vt 0.125000 0.015625
vt 0.000000 1.000000
vt 0.125000 0.015625
vt 0.843750 0.015625
vt 0.000000 1.000000
vt 0.843750 0.125000
vt 0.562500 0.125000
vt 0.125000 0.015625
vt 0.562500 0.125000
vt 0.843750 0.125000
vt 0.125000 0.015625
vt 0.708333 0.031250
vt 0.708333 0.218750
vt 0.968750 0.458333
vt 0.708333 0.218750
vt 0.968750 0.458333
vt 0.020833 0.218750
vt 0.020833 0.031250
vt 0.000000 0.218750
vt 0.125000 0.812500
vt 0.020833 0.218750
vt 0.125000 1.000000
vt 0.125000 1.000000
vt 0.958333 0.218750
vt 0.979167 0.187500
vt 0.354167 1.000000
vt 0.958333 0.218750
vt 0.916667 0.218750
vt 0.354167 0.812500
vt 0.958333 0.031250
vt 0.958333 0.218750
vt 0.125000 0.812500
vt 0.958333 0.218750
vt 0.916667 0.218750
vt 0.979167 0.031250
vt 0.708333 1.000000
vt 0.979167 1.000000
vt 0.958333 1.000000
vt 0.343750 0.703125
vt 0.968750 0.468750
vt 0.656250 0.468750
vt 0.281250 0.468750
vt 0.656250 0.468750
vt 0.520833 0.968750
vt 0.520833 1.000000
vt 0.979167 1.000000
vt 0.958333 1.000000
vt 0.708333 1.000000
vt 0.718750 0.171875
vt 0.000000 0.015625
vt 0.187500 0.031250
vt 0.937500 0.031250
vt 0.390625 0.020833
vt 0.520833 0.968750
vt 0.520833 1.000000
vt 0.281250 0.437500
vt 0.281250 0.453125
vt 0.968750 0.031250
vt 0.937500 1.000000
vt 0.093750 1.000000
vt 0.984375 1.000000
vt 0.187500 0.062500
vt 0.166667 0.031250
vt 0.166667 0.218750
vt 0.968750 0.020833
vt 0.656250 0.229167
vt 0.166667 0.218750
vt 0.968750 0.020833
vt 0.656250 0.229167
vt 0.250000 0.812500
vt 0.750000 0.062500
vt 0.656250 0.229167
vt 0.968750 0.020833
vt 0.937500 0.812500
vt 0.750000 0.312500
vt 0.656250 0.229167
vt 0.968750 0.020833
vt 0.937500 0.812500
vt 0.750000 0.312500
vt 0.656250 0.458333
vt 0.250000 0.812500
vt 0.750000 0.062500
vt 0.656250 0.458333
vt 0.250000 1.000000
vt 0.937500 0.375000
vt 0.875000 0.062500
vt 0.687500 0.062500
vt 0.687500 0.062500
vt 0.937500 1.000000
vt 0.937500 0.750000
vt 0.875000 0.375000
vt 0.937500 1.000000
vt 0.125000 0.062500
vt 0.875000 0.375000
vt 0.125000 0.375000
vt 0.250000 1.000000
vt 0.875000 0.062500
vt 0.125000 0.062500
vt 0.687500 0.062500
vt 0.562500 0.375000
vt 0.687500 0.375000
vt 0.687500 0.375000
vt 0.562500 0.750000
vt 0.125000 0.062500
vt 0.125000 0.375000
vt 0.125000 0.375000
vt 0.000000 0.375000
vt 0.000000 0.312500
vt 0.187500 0.375000
vt 0.187500 0.375000
vt 0.000000 0.375000
vt 0.000000 0.125000
vt 0.187500 0.375000
vt 0.000000 0.312500
vt 0.000000 0.125000
vt 0.000000 0.375000
vt 0.000000 0.375000
vt 0.000000 0.125000
vt 0.187500 0.375000
vt 0.000000 0.312500
vt 0.000000 1.000000
vt 0.562500 0.750000
vt 0.187500 1.000000
vt 0.187500 1.000000
vt 0.187500 0.750000
vt 0.000000 1.000000
vt 0.187500 1.000000
vt 0.562500 0.375000
vt 0.000000 1.000000
vt 0.000000 1.000000
vt 0.187500 0.375000
vt 0.187500 1.000000
vt 0.020833 0.031250
vt 0.020833 0.218750
vt 0.125000 0.812500
vt 0.020833 0.218750
vt 0.125000 1.000000
vt 0.000000 0.218750
vt 0.708333 0.218750
vt 0.968750 0.458333
vt 0.708333 0.031250
vt 0.708333 0.218750
vt 0.968750 0.458333
vt 0.958333 0.218750
vt 0.958333 0.031250
vt 0.125000 1.000000
vt 0.916667 0.218750
vt 0.958333 0.031250
vt 0.958333 0.218750
vt 0.354167 1.000000
vt 0.916667 0.218750
vt 0.958333 0.218750
vt 0.125000 0.812500
vt 0.958333 0.218750
vt 0.354167 0.812500
vt 0.281250 0.703125
vt 0.687500 1.000000
vt 0.281250 0.296875
vt 0.281250 1.000000
vt 0.958333 1.000000
vt 0.979167 1.000000
vt 0.708333 1.000000
vt 0.281250 0.296875
vt 0.281250 1.000000
vt 0.520833 1.000000
vt 0.520833 0.968750
vt 0.343750 0.703125
vt 0.968750 0.468750
vt 0.187500 0.020833
vt 0.958333 1.000000
vt 0.979167 1.000000
vt 0.708333 1.000000
vt 0.520833 1.000000
vt 0.520833 0.968750
vt 0.281250 0.703125
vt 0.687500 1.000000
vt 0.166667 0.031250
vt 0.166667 0.218750
vt 0.968750 0.020833
vt 0.166667 0.218750
vt 0.968750 0.020833
vt 0.750000 0.312500
vt 0.937500 0.812500
vt 0.656250 0.229167
vt 0.750000 0.062500
vt 0.250000 0.812500
vt 0.656250 0.229167
vt 0.750000 0.312500
vt 0.937500 0.812500
vt 0.656250 0.458333
vt 0.750000 0.062500
vt 0.250000 0.812500
vt 0.656250 0.458333
vt 0.875000 0.062500
vt 0.937500 0.750000
vt 0.687500 0.375000
vt 0.250000 1.000000
vt 0.687500 0.062500
vt 0.875000 0.375000
vt 0.937500 0.375000
vt 0.937500 1.000000
vt 0.875000 0.375000
vt 0.125000 0.375000
vt 0.937500 1.000000
vt 0.125000 0.062500
vt 0.875000 0.062500
vt 0.250000 1.000000
vt 0.562500 0.750000
vt 0.687500 0.062500
vt 0.687500 0.375000
vt 0.562500 0.375000
vt 0.125000 0.062500
vt 0.125000 0.375000
vt 0.000000 0.312500
vt 0.187500 0.375000
vt 0.000000 0.375000
vt 0.000000 0.125000
vt 0.187500 0.375000
vt 0.000000 0.375000
vt 0.000000 0.125000
vt 0.000000 0.375000
vt 0.187500 0.375000
vt 0.000000 0.312500
vt 0.187500 0.375000
vt 0.000000 0.375000
vt 0.187500 1.000000
vt 0.000000 1.000000
vt 0.562500 0.750000
vt 0.000000 1.000000
vt 0.187500 1.000000
vt 0.187500 0.750000
vt 0.187500 1.000000
vt 0.000000 1.000000
vt 0.562500 0.375000
vt 0.187500 1.000000
vt 0.000000 1.000000
vt 0.187500 0.375000
vt 0.187500 0.968750
vt 0.187500 1.000000
vt 0.968750 1.000000
vt 0.000000 0.500000
vt 0.187500 1.000000
vt 0.187500 0.968750
vt 0.968750 1.000000
vt 0.937500 0.500000
vt 0.718750 1.000000
vt 0.375000 1.000000
vt 0.187500 1.000000
vt 0.281250 0.031250
vt 0.656250 0.031250
vt 0.000000 0.968750
vt 0.500000 1.000000
vt 0.718750 1.000000
vt 0.562500 1.000000
vt 0.687500 1.000000
vt 0.656250 0.031250
vt 0.500000 1.000000
vt 0.281250 0.453125
vt 0.281250 0.437500
vt 0.968750 0.031250
vt 0.937500 1.000000
s 0
usemtl tex_0
f 73/203/1 63/184/1 64/187/1
f 78/213/2 77/210/2 57/166/2 58/169/2
f 70/198/3 78/213/3 58/169/3
f 74/205/4 59/172/4 63/185/4 73/204/4
f 32/88/5 35/97/5 16/50/5
f 75/206/4 77/211/4 59/172/4 74/205/4
f 35/96/6 36/100/6 17/54/6 16/51/6
f 20/62/1 21/65/1 18/56/1 19/59/1
f 35/97/7 32/88/7 29/81/7 14/46/7
f 22/69/8 7/22/8 8/26/8 27/78/8
f 36/100/9 27/78/9 17/54/9
f 23/70/8 18/57/8 7/22/8 22/69/8
f 67/193/1 62/180/1 61/177/1
f 19/60/10 15/48/10 14/45/10 20/63/10
f 67/194/11 61/177/11 60/175/11 68/195/11
f 22/69/12 15/48/12 19/60/12 23/70/12
f 62/181/10 3/8/10 1/1/10 64/187/10
f 27/77/13 8/27/13 17/54/13
f 63/185/14 59/172/14 60/174/14 61/178/14
f 28/79/7 20/64/7 14/46/7 29/81/7
f 73/204/15 64/187/15 1/1/15 74/205/15
f 32/87/16 16/52/16 6/19/16
f 68/195/17 3/9/17 62/182/17 67/194/17
f 32/88/18 6/19/18 5/15/18 29/81/18
f 70/198/17 4/13/17 3/9/17 68/195/17
f 29/81/18 5/15/18 21/66/18 28/79/18
f 61/179/1 62/183/1 64/188/1 63/186/1
f 23/71/1 19/61/1 18/57/1
f 74/205/15 1/1/15 2/4/15 75/206/15
f 28/80/1 21/67/1 20/64/1
f 78/213/11 70/198/11 68/195/11 60/175/11
f 77/211/19 75/206/19 57/167/19
f 75/207/16 2/5/16 57/167/16
f 57/168/20 2/6/20 4/12/20 58/170/20
f 70/199/13 58/171/13 4/13/13
f 27/78/12 36/100/12 15/48/12 22/69/12
f 21/68/14 5/16/14 7/23/14 18/58/14
f 17/55/20 8/28/20 6/20/20 16/53/20
usemtl tex_1
f 7/25/21 24/72/21 105/292/21 8/29/21
f 2/7/22 69/196/22 11/36/22
f 71/200/23 3/10/23 4/14/23 33/89/23
f 65/189/22 1/2/22 9/30/22
f 13/42/20 12/39/20 30/82/20
f 34/93/1 99/271/1 7/24/1 5/17/1
f 24/72/24 7/25/24 99/272/24
f 3/10/24 71/200/24 100/275/24
f 1/2/22 65/189/22 69/196/22 2/7/22
f 100/276/1 9/30/1 1/3/1 3/11/1
f 12/41/25 105/291/25 30/83/25
f 11/36/26 13/44/26 4/14/26 2/7/26
f 12/40/20 13/43/20 11/37/20 10/33/20
f 76/208/22 5/18/22 6/21/22 66/191/22
f 5/18/22 76/208/22 34/93/22
f 33/89/27 4/14/27 13/44/27
f 12/41/28 10/34/28 6/21/28 8/29/28
f 33/90/29 13/44/29 30/83/29
f 66/191/22 6/21/22 10/34/22
f 8/29/30 105/292/30 12/41/30
usemtl tex_2
f 48/139/10 47/137/10 45/132/10 46/135/10
f 49/141/31 48/139/31 44/131/31 50/145/31
f 54/157/10 51/146/10 49/140/10 56/163/10
f 88/243/22 84/231/22 86/238/22 90/246/22
f 46/135/32 42/121/32 44/131/32 48/139/32
f 91/247/33 90/246/33 86/238/33 92/250/33
f 55/160/14 50/143/14 52/150/14 53/154/14
f 94/256/31 85/236/31 89/245/31 93/253/31
f 90/246/14 89/245/14 87/242/14 88/243/14
f 93/253/34 89/245/34 90/246/34 91/247/34
f 43/125/35 38/107/35 40/114/35 41/117/35
f 92/250/36 86/238/36 85/236/36 94/256/36
f 42/122/37 39/111/37 37/103/37 44/129/37
f 95/259/32 94/257/32 93/254/32 96/262/32
f 83/227/1 82/224/1 81/221/1 84/232/1
f 97/265/10 92/251/10 94/258/10 95/260/10
f 86/239/20 80/218/20 79/215/20 85/235/20
f 98/268/22 91/248/22 92/252/22 97/266/22
f 87/241/1 83/228/1 84/233/1 88/244/1
f 96/263/14 93/255/14 91/249/14 98/269/14
f 98/270/20 97/267/20 95/261/20 96/264/20
f 45/133/1 41/118/1 42/123/1 46/136/1
f 41/119/1 40/115/1 39/112/1 42/124/1
f 52/151/33 43/126/33 47/138/33 51/147/33
f 51/148/36 47/137/36 48/139/36 49/141/36
f 84/234/38 81/222/38 80/219/38 86/240/38
f 56/164/20 55/161/20 53/155/20 54/158/20
f 53/156/22 52/152/22 51/149/22 54/159/22
f 56/165/32 49/142/32 50/144/32 55/162/32
f 47/138/22 43/126/22 41/120/22 45/134/22
f 89/245/32 85/236/32 83/229/32 87/242/32
f 85/237/39 79/216/39 82/225/39 83/230/39
f 44/130/20 37/104/20 38/108/20 43/127/20
f 50/145/34 44/131/34 43/128/34 52/153/34
usemtl tex_3
f 72/202/40 69/197/40 65/190/40 31/86/40
f 81/223/41 59/173/41 77/212/41 80/220/41
f 66/192/42 72/202/42 31/86/42 76/209/42
f 39/113/32 15/49/32 36/101/32 37/105/32
f 69/197/43 72/202/43 11/38/43
f 40/116/1 14/47/1 15/49/1 39/113/1
f 72/202/44 66/192/44 10/35/44
f 76/209/45 31/86/45 34/94/45
f 80/220/46 77/212/46 78/214/46 79/217/46
f 38/109/47 35/98/47 14/47/47 40/116/47
f 79/217/32 78/214/32 60/176/32 82/226/32
f 82/226/1 60/176/1 59/173/1 81/223/1
f 31/86/48 9/31/48 34/94/48
f 31/86/49 65/190/49 9/31/49
f 37/106/50 36/102/50 35/99/50 38/110/50
f 72/202/51 10/35/51 11/38/51
usemtl tex_4
f 71/201/52 25/74/52 103/286/52 100/277/52
f 33/91/53 104/289/53 25/74/53 71/201/53
f 26/76/54 24/73/54 99/273/54 101/279/54
f 26/75/32 25/74/32 104/289/32 102/282/32
f 25/74/55 26/75/55 101/280/55 103/287/55
f 102/283/56 105/293/56 24/73/56 26/76/56
usemtl tex_5
f 101/281/1 99/274/1 100/278/1 103/288/1
f 99/274/1 34/95/1 9/32/1 100/278/1
usemtl tex_6_additive
f 30/84/57 102/284/57 104/290/57
f 33/92/58 30/85/58 104/290/58
f 30/85/59 105/294/59 102/285/59
